font.ufo
<glyph name="quotedbl" format="1">
  <advance width="345"/>
  <unicode hex="0022"/>
  <outline>
    <contour>
      <point x="119" y="534" type="line"/>
      <point x="122" y="722" type="line"/>
      <point x="92" y="722" type="line"/>
      <point x="95" y="534" type="line"/>
    </contour>
    <contour>
      <point x="250" y="534" type="line"/>
      <point x="253" y="722" type="line"/>
      <point x="223" y="722" type="line"/>
      <point x="226" y="534" type="line"/>
    </contour>
  </outline>
</glyph>
<glyph name="percent" format="1">
  <advance width="687"/>
  <unicode hex="0025"/>
  <outline>
    <contour>
      <point x="211" y="-93" type="line"/>
      <point x="510" y="757" type="line"/>
      <point x="482" y="757" type="line"/>
      <point x="184" y="-93" type="line"/>
    </contour>
    <contour>
      <point x="64" y="557" type="curve"/>
      <point x="64" y="658"/>
      <point x="78" y="743"/>
      <point x="165" y="743" type="curve"/>
      <point x="252" y="744"/>
      <point x="266" y="659"/>
      <point x="266" y="558" type="curve"/>
      <point x="266" y="457"/>
      <point x="254" y="370"/>
      <point x="167" y="370" type="curve"/>
      <point x="79" y="370"/>
      <point x="64" y="455"/>
      <point x="64" y="557" type="curve"/>
      <point x="55" y="557"/>
      <point x="50" y="557"/>
      <point x="41" y="557" type="curve"/>
      <point x="41" y="443"/>
      <point x="66" y="349"/>
      <point x="166" y="349" type="curve"/>
      <point x="266" y="349"/>
      <point x="290" y="444"/>
      <point x="290" y="559" type="curve"/>
      <point x="290" y="672"/>
      <point x="265" y="765"/>
      <point x="166" y="765" type="curve"/>
      <point x="66" y="765"/>
      <point x="41" y="671"/>
      <point x="41" y="557" type="curve"/>
      <point x="50" y="557"/>
      <point x="55" y="557"/>
    </contour>
    <contour>
      <point x="420" y="109" type="curve"/>
      <point x="420" y="210"/>
      <point x="434" y="295"/>
      <point x="521" y="295" type="curve"/>
      <point x="608" y="296"/>
      <point x="622" y="211"/>
      <point x="622" y="110" type="curve"/>
      <point x="622" y="9"/>
      <point x="610" y="-78"/>
      <point x="523" y="-78" type="curve"/>
      <point x="435" y="-78"/>
      <point x="420" y="7"/>
      <point x="420" y="109" type="curve"/>
      <point x="411" y="109"/>
      <point x="406" y="109"/>
      <point x="397" y="109" type="curve"/>
      <point x="397" y="-5"/>
      <point x="422" y="-99"/>
      <point x="522" y="-99" type="curve"/>
      <point x="622" y="-99"/>
      <point x="646" y="-4"/>
      <point x="646" y="111" type="curve"/>
      <point x="646" y="224"/>
      <point x="621" y="317"/>
      <point x="522" y="317" type="curve"/>
      <point x="422" y="317"/>
      <point x="397" y="223"/>
      <point x="397" y="109" type="curve"/>
      <point x="406" y="109"/>
      <point x="411" y="109"/>
    </contour>
  </outline>
</glyph>
<glyph name="semicolon" format="1">
  <advance width="246"/>
  <unicode hex="003B"/>
  <outline>
    <contour>
      <point x="94" y="-102" type="line"/>
      <point x="118" y="-78"/>
      <point x="137" y="-51"/>
      <point x="137" y="-4" type="curve"/>
      <point x="137" y="16"/>
      <point x="134" y="33"/>
      <point x="116" y="33" type="curve"/>
      <point x="103" y="33"/>
      <point x="96" y="27"/>
      <point x="96" y="15" type="curve"/>
      <point x="96" y="5"/>
      <point x="100" y="-1"/>
      <point x="111" y="-6" type="curve"/>
      <point x="111" y="-27"/>
      <point x="101" y="-62"/>
      <point x="78" y="-85" type="curve"/>
    </contour>
    <contour>
      <point x="141" y="428" type="curve"/>
      <point x="141" y="439"/>
      <point x="134" y="445"/>
      <point x="123" y="445" type="curve"/>
      <point x="112" y="445"/>
      <point x="106" y="438"/>
      <point x="106" y="428" type="curve"/>
      <point x="141" y="428"/>
      <point x="106" y="428"/>
      <point x="141" y="428" type="curve"/>
      <point x="141" y="417"/>
      <point x="134" y="411"/>
      <point x="123" y="411" type="curve"/>
      <point x="112" y="411"/>
      <point x="106" y="417"/>
      <point x="106" y="428" type="curve"/>
      <point x="141" y="428"/>
      <point x="106" y="428"/>
    </contour>
  </outline>
</glyph>
<glyph name="at" format="1">
  <advance width="607"/>
  <unicode hex="0040"/>
  <outline>
    <contour>
      <point x="421" y="-104" type="curve"/>
      <point x="386" y="-132"/>
      <point x="357" y="-141"/>
      <point x="312" y="-141" type="curve"/>
      <point x="143" y="-141"/>
      <point x="85" y="1"/>
      <point x="85" y="189" type="curve"/>
      <point x="85" y="373"/>
      <point x="145" y="515"/>
      <point x="310" y="515" type="curve"/>
      <point x="465" y="515"/>
      <point x="519" y="379"/>
      <point x="519" y="208" type="curve"/>
      <point x="519" y="122"/>
      <point x="518" y="43"/>
      <point x="467" y="43" type="curve"/>
      <point x="407" y="43"/>
      <point x="407" y="115"/>
      <point x="407" y="194" type="curve"/>
      <point x="407" y="290"/>
      <point x="385" y="367"/>
      <point x="301" y="367" type="curve"/>
      <point x="214" y="367"/>
      <point x="186" y="292"/>
      <point x="186" y="195" type="curve"/>
      <point x="186" y="92"/>
      <point x="208" y="11"/>
      <point x="298" y="11" type="curve"/>
      <point x="381" y="11"/>
      <point x="395" y="90"/>
      <point x="403" y="184" type="curve"/>
      <point x="389" y="186"/>
      <point x="403" y="184"/>
      <point x="389" y="186" type="curve"/>
      <point x="376" y="110"/>
      <point x="364" y="33"/>
      <point x="301" y="33" type="curve"/>
      <point x="222" y="33"/>
      <point x="209" y="106"/>
      <point x="209" y="196" type="curve"/>
      <point x="209" y="280"/>
      <point x="226" y="345"/>
      <point x="298" y="345" type="curve"/>
      <point x="371" y="345"/>
      <point x="385" y="277"/>
      <point x="385" y="193" type="curve"/>
      <point x="385" y="102"/>
      <point x="386" y="23"/>
      <point x="465" y="23" type="curve"/>
      <point x="547" y="23"/>
      <point x="544" y="109"/>
      <point x="544" y="209" type="curve"/>
      <point x="544" y="397"/>
      <point x="485" y="538"/>
      <point x="312" y="538" type="curve"/>
      <point x="129" y="538"/>
      <point x="60" y="389"/>
      <point x="60" y="188" type="curve"/>
      <point x="60" y="-13"/>
      <point x="128" y="-163"/>
      <point x="310" y="-163" type="curve"/>
      <point x="360" y="-163"/>
      <point x="393" y="-154"/>
      <point x="432" y="-124" type="curve"/>
      <point x="421" y="-104"/>
      <point x="432" y="-124"/>
    </contour>
  </outline>
</glyph>
<glyph name="H" format="1">
  <advance width="657"/>
  <unicode hex="0048"/>
  <outline>
    <contour>
      <point x="506" y="700" type="curve"/>
      <point x="638" y="700"/>
      <point x="486" y="700"/>
      <point x="618" y="700" type="curve"/>
      <point x="618" y="722"/>
      <point x="618" y="700"/>
      <point x="618" y="722" type="curve"/>
      <point x="574" y="722"/>
      <point x="550" y="722"/>
      <point x="506" y="722" type="curve"/>
      <point x="506" y="700"/>
      <point x="506" y="722"/>
    </contour>
    <contour>
      <point x="506" y="0" type="curve"/>
      <point x="550" y="0"/>
      <point x="574" y="0"/>
      <point x="618" y="0" type="curve"/>
      <point x="618" y="22"/>
      <point x="618" y="0"/>
      <point x="618" y="22" type="curve"/>
      <point x="486" y="22"/>
      <point x="638" y="22"/>
      <point x="506" y="22" type="curve"/>
      <point x="506" y="0"/>
      <point x="506" y="22"/>
    </contour>
    <contour>
      <point x="506" y="22" type="curve"/>
      <point x="374" y="22"/>
      <point x="526" y="22"/>
      <point x="394" y="22" type="curve"/>
      <point x="394" y="0"/>
      <point x="394" y="22"/>
      <point x="394" y="0" type="curve"/>
      <point x="438" y="0"/>
      <point x="462" y="0"/>
      <point x="506" y="0" type="curve"/>
      <point x="506" y="22"/>
      <point x="506" y="0"/>
    </contour>
    <contour>
      <point x="506" y="722" type="curve"/>
      <point x="462" y="722"/>
      <point x="438" y="722"/>
      <point x="394" y="722" type="curve"/>
      <point x="394" y="700"/>
      <point x="394" y="722"/>
      <point x="394" y="700" type="curve"/>
      <point x="526" y="700"/>
      <point x="374" y="700"/>
      <point x="506" y="700" type="curve"/>
      <point x="506" y="722"/>
      <point x="506" y="700"/>
    </contour>
    <contour>
      <point x="152" y="700" type="curve"/>
      <point x="284" y="700"/>
      <point x="132" y="700"/>
      <point x="264" y="700" type="curve"/>
      <point x="264" y="722"/>
      <point x="264" y="700"/>
      <point x="264" y="722" type="curve"/>
      <point x="220" y="722"/>
      <point x="196" y="722"/>
      <point x="152" y="722" type="curve"/>
      <point x="152" y="700"/>
      <point x="152" y="722"/>
    </contour>
    <contour>
      <point x="152" y="722" type="curve"/>
      <point x="108" y="722"/>
      <point x="84" y="722"/>
      <point x="40" y="722" type="curve"/>
      <point x="40" y="700"/>
      <point x="40" y="722"/>
      <point x="40" y="700" type="curve"/>
      <point x="172" y="700"/>
      <point x="20" y="700"/>
      <point x="152" y="700" type="curve"/>
      <point x="152" y="722"/>
      <point x="152" y="700"/>
    </contour>
    <contour>
      <point x="152" y="0" type="curve"/>
      <point x="196" y="0"/>
      <point x="132" y="0"/>
      <point x="264" y="0" type="curve"/>
      <point x="264" y="22"/>
      <point x="264" y="0"/>
      <point x="264" y="22" type="curve"/>
      <point x="132" y="22"/>
      <point x="284" y="22"/>
      <point x="152" y="22" type="curve"/>
      <point x="152" y="0"/>
      <point x="152" y="22"/>
    </contour>
    <contour>
      <point x="152" y="22" type="curve"/>
      <point x="20" y="22"/>
      <point x="172" y="22"/>
      <point x="40" y="22" type="curve"/>
      <point x="40" y="0"/>
      <point x="40" y="22"/>
      <point x="40" y="0" type="curve"/>
      <point x="84" y="0"/>
      <point x="108" y="0"/>
      <point x="152" y="0" type="curve"/>
      <point x="152" y="22"/>
      <point x="152" y="0"/>
    </contour>
    <contour>
      <point x="164" y="0" type="curve"/>
      <point x="164" y="722" type="line"/>
      <point x="140" y="722"/>
      <point x="164" y="722"/>
      <point x="140" y="722" type="curve"/>
      <point x="140" y="481"/>
      <point x="140" y="241"/>
      <point x="140" y="0" type="curve"/>
      <point x="164" y="0"/>
      <point x="140" y="0"/>
    </contour>
    <contour>
      <point x="504" y="374" type="curve"/>
      <point x="386" y="374"/>
      <point x="269" y="374"/>
      <point x="152" y="374" type="curve"/>
      <point x="152" y="352"/>
      <point x="152" y="374"/>
      <point x="152" y="352" type="curve"/>
      <point x="269" y="352"/>
      <point x="386" y="352"/>
      <point x="504" y="352" type="curve"/>
      <point x="504" y="374"/>
      <point x="504" y="352"/>
    </contour>
    <contour>
      <point x="517" y="1" type="curve"/>
      <point x="517" y="241"/>
      <point x="517" y="481"/>
      <point x="517" y="721" type="curve"/>
      <point x="493" y="721"/>
      <point x="517" y="721"/>
      <point x="493" y="721" type="curve"/>
      <point x="493" y="1" type="line"/>
      <point x="517" y="1"/>
      <point x="493" y="1"/>
    </contour>
  </outline>
</glyph>
<glyph name="M" format="1">
  <advance width="758"/>
  <unicode hex="004D"/>
  <outline>
    <contour>
      <point x="621" y="0" type="curve"/>
      <point x="665" y="0"/>
      <point x="689" y="0"/>
      <point x="733" y="0" type="curve"/>
      <point x="733" y="22"/>
      <point x="733" y="0"/>
      <point x="733" y="22" type="curve"/>
      <point x="601" y="22"/>
      <point x="753" y="22"/>
      <point x="621" y="22" type="curve"/>
      <point x="621" y="0"/>
      <point x="621" y="22"/>
    </contour>
    <contour>
      <point x="621" y="22" type="curve"/>
      <point x="488" y="22"/>
      <point x="641" y="22"/>
      <point x="508" y="22" type="curve"/>
      <point x="508" y="0"/>
      <point x="508" y="22"/>
      <point x="508" y="0" type="curve"/>
      <point x="552" y="0"/>
      <point x="576" y="0"/>
      <point x="621" y="0" type="curve"/>
      <point x="621" y="22"/>
      <point x="621" y="0"/>
    </contour>
    <contour>
      <point x="138" y="22" type="curve"/>
      <point x="6" y="22"/>
      <point x="158" y="22"/>
      <point x="26" y="22" type="curve"/>
      <point x="26" y="0"/>
      <point x="26" y="22"/>
      <point x="26" y="0" type="curve"/>
      <point x="70" y="0"/>
      <point x="94" y="0"/>
      <point x="138" y="0" type="curve"/>
      <point x="138" y="22"/>
      <point x="138" y="0"/>
    </contour>
    <contour>
      <point x="180" y="722" type="curve"/>
      <point x="135" y="722"/>
      <point x="111" y="722"/>
      <point x="67" y="722" type="curve"/>
      <point x="67" y="700"/>
      <point x="67" y="722"/>
      <point x="67" y="700" type="curve"/>
      <point x="200" y="700"/>
      <point x="47" y="700"/>
      <point x="180" y="700" type="curve"/>
      <point x="180" y="722"/>
      <point x="180" y="700"/>
    </contour>
    <contour>
      <point x="578" y="700" type="curve"/>
      <point x="710" y="700"/>
      <point x="558" y="700"/>
      <point x="690" y="700" type="curve"/>
      <point x="690" y="722"/>
      <point x="690" y="700"/>
      <point x="690" y="722" type="curve"/>
      <point x="646" y="722"/>
      <point x="622" y="722"/>
      <point x="578" y="722" type="curve"/>
      <point x="578" y="700"/>
      <point x="578" y="722"/>
    </contour>
    <contour>
      <point x="138" y="0" type="curve"/>
      <point x="182" y="0"/>
      <point x="118" y="0"/>
      <point x="250" y="0" type="curve"/>
      <point x="250" y="22"/>
      <point x="250" y="0"/>
      <point x="250" y="22" type="curve"/>
      <point x="118" y="22"/>
      <point x="270" y="22"/>
      <point x="138" y="22" type="curve"/>
      <point x="138" y="0"/>
      <point x="138" y="22"/>
    </contour>
    <contour>
      <point x="632" y="0" type="curve"/>
      <point x="617" y="241"/>
      <point x="603" y="481"/>
      <point x="588" y="722" type="curve"/>
      <point x="566" y="722"/>
      <point x="588" y="722"/>
      <point x="566" y="722" type="curve"/>
      <point x="580" y="481"/>
      <point x="594" y="241"/>
      <point x="608" y="0" type="curve"/>
      <point x="632" y="0"/>
      <point x="608" y="0"/>
    </contour>
    <contour>
      <point x="150" y="0" type="curve"/>
      <point x="163" y="241"/>
      <point x="176" y="481"/>
      <point x="189" y="722" type="curve"/>
      <point x="167" y="722"/>
      <point x="189" y="722"/>
      <point x="167" y="722" type="curve"/>
      <point x="153" y="481"/>
      <point x="139" y="241"/>
      <point x="125" y="0" type="curve"/>
      <point x="150" y="0"/>
      <point x="125" y="0"/>
    </contour>
    <contour>
      <point x="388" y="0" type="curve"/>
      <point x="322" y="241"/>
      <point x="256" y="481"/>
      <point x="191" y="722" type="curve"/>
      <point x="168" y="722"/>
      <point x="191" y="722"/>
      <point x="168" y="722" type="curve"/>
      <point x="234" y="481"/>
      <point x="299" y="241"/>
      <point x="364" y="0" type="curve"/>
      <point x="388" y="0"/>
      <point x="364" y="0"/>
    </contour>
    <contour>
      <point x="395" y="0" type="curve"/>
      <point x="459" y="241"/>
      <point x="523" y="481"/>
      <point x="587" y="722" type="curve"/>
      <point x="565" y="722"/>
      <point x="587" y="722"/>
      <point x="565" y="722" type="curve"/>
      <point x="500" y="481"/>
      <point x="435" y="241"/>
      <point x="370" y="0" type="curve"/>
      <point x="395" y="0"/>
      <point x="370" y="0"/>
    </contour>
  </outline>
</glyph>
<glyph name="T" format="1">
  <advance width="530"/>
  <unicode hex="0054"/>
  <outline>
    <contour>
      <point x="265" y="825" type="move" name="top"/>
    </contour>
    <contour>
      <point x="265" y="-80" type="move" name="bottom"/>
    </contour>
    <contour>
      <point x="48" y="710" type="curve"/>
      <point x="48" y="590"/>
      <point x="48" y="721"/>
      <point x="48" y="601" type="curve"/>
      <point x="70" y="601"/>
      <point x="48" y="601"/>
      <point x="70" y="601" type="curve"/>
      <point x="70" y="721"/>
      <point x="70" y="590"/>
      <point x="70" y="710" type="curve"/>
      <point x="48" y="710"/>
      <point x="70" y="710"/>
    </contour>
    <contour>
      <point x="460" y="710" type="curve"/>
      <point x="460" y="590"/>
      <point x="460" y="721"/>
      <point x="460" y="601" type="curve"/>
      <point x="482" y="601"/>
      <point x="460" y="601"/>
      <point x="482" y="601" type="curve"/>
      <point x="482" y="721"/>
      <point x="482" y="590"/>
      <point x="482" y="710" type="curve"/>
      <point x="460" y="710"/>
      <point x="482" y="710"/>
    </contour>
    <contour>
      <point x="265" y="0" type="curve"/>
      <point x="306" y="0"/>
      <point x="337" y="0"/>
      <point x="377" y="0" type="curve"/>
      <point x="377" y="22"/>
      <point x="377" y="0"/>
      <point x="377" y="22" type="curve"/>
      <point x="256" y="22"/>
      <point x="386" y="22"/>
      <point x="265" y="22" type="curve"/>
      <point x="265" y="0"/>
      <point x="265" y="22"/>
    </contour>
    <contour>
      <point x="265" y="22" type="curve"/>
      <point x="143" y="22"/>
      <point x="274" y="22"/>
      <point x="152" y="22" type="curve"/>
      <point x="152" y="0"/>
      <point x="152" y="22"/>
      <point x="152" y="0" type="curve"/>
      <point x="193" y="0"/>
      <point x="224" y="0"/>
      <point x="265" y="0" type="curve"/>
      <point x="265" y="22"/>
      <point x="265" y="0"/>
    </contour>
    <contour>
      <point x="277" y="0" type="curve"/>
      <point x="277" y="237"/>
      <point x="277" y="473"/>
      <point x="277" y="710" type="curve"/>
      <point x="253" y="710"/>
      <point x="277" y="710"/>
      <point x="253" y="710" type="curve"/>
      <point x="253" y="473"/>
      <point x="253" y="237"/>
      <point x="253" y="0" type="curve"/>
      <point x="277" y="0"/>
      <point x="253" y="0"/>
    </contour>
    <contour>
      <point x="48" y="698" type="curve"/>
      <point x="193" y="698"/>
      <point x="338" y="698"/>
      <point x="482" y="698" type="curve"/>
      <point x="482" y="722"/>
      <point x="482" y="698"/>
      <point x="482" y="722" type="curve"/>
      <point x="338" y="722"/>
      <point x="193" y="722"/>
      <point x="48" y="722" type="curve"/>
      <point x="48" y="698"/>
      <point x="48" y="722"/>
    </contour>
  </outline>
</glyph>
<glyph name="bracketright" format="1">
  <advance width="235"/>
  <unicode hex="005D"/>
  <outline>
    <contour>
      <point x="39" y="747" type="curve"/>
      <point x="75" y="747"/>
      <point x="111" y="747"/>
      <point x="147" y="747" type="curve"/>
      <point x="144" y="750"/>
      <point x="140" y="752"/>
      <point x="138" y="756" type="curve"/>
      <point x="135" y="759"/>
      <point x="132" y="762"/>
      <point x="130" y="765" type="curve"/>
      <point x="130" y="470"/>
      <point x="129" y="175"/>
      <point x="130" y="-120" type="curve"/>
      <point x="132" y="-116"/>
      <point x="136" y="-113"/>
      <point x="139" y="-109" type="curve"/>
      <point x="141" y="-106"/>
      <point x="145" y="-104"/>
      <point x="147" y="-100" type="curve"/>
      <point x="111" y="-100"/>
      <point x="75" y="-100"/>
      <point x="39" y="-100" type="curve"/>
      <point x="39" y="-124"/>
      <point x="39" y="-100"/>
      <point x="39" y="-124" type="curve"/>
      <point x="75" y="-124"/>
      <point x="111" y="-124"/>
      <point x="147" y="-124" type="curve"/>
      <point x="154" y="-124"/>
      <point x="147" y="-124"/>
      <point x="154" y="-124" type="curve"/>
      <point x="154" y="-120"/>
      <point x="154" y="-124"/>
      <point x="154" y="-120" type="curve"/>
      <point x="154" y="175"/>
      <point x="154" y="470"/>
      <point x="154" y="765" type="curve"/>
      <point x="154" y="771"/>
      <point x="154" y="765"/>
      <point x="154" y="771" type="curve"/>
      <point x="147" y="771"/>
      <point x="154" y="771"/>
      <point x="147" y="771" type="curve"/>
      <point x="111" y="771"/>
      <point x="75" y="771"/>
      <point x="39" y="771" type="curve"/>
      <point x="39" y="747"/>
      <point x="39" y="771"/>
    </contour>
  </outline>
</glyph>
<glyph name="asciicircum" format="1">
  <advance width="417"/>
  <unicode hex="005E"/>
  <outline>
    <contour>
      <point x="98" y="466" type="curve"/>
      <point x="139" y="581"/>
      <point x="180" y="695"/>
      <point x="220" y="810" type="curve"/>
      <point x="196" y="810"/>
      <point x="220" y="810"/>
      <point x="196" y="810" type="curve"/>
      <point x="155" y="695"/>
      <point x="115" y="581"/>
      <point x="74" y="466" type="curve"/>
      <point x="98" y="466"/>
      <point x="74" y="466"/>
    </contour>
    <contour>
      <point x="344" y="466" type="curve"/>
      <point x="304" y="577"/>
      <point x="260" y="699"/>
      <point x="220" y="810" type="curve"/>
      <point x="196" y="810"/>
      <point x="220" y="810"/>
      <point x="196" y="810" type="curve"/>
      <point x="236" y="699"/>
      <point x="280" y="577"/>
      <point x="320" y="466" type="curve"/>
      <point x="344" y="466"/>
      <point x="320" y="466"/>
    </contour>
  </outline>
</glyph>
<glyph name="b" format="1">
  <advance width="490"/>
  <unicode hex="0062"/>
  <outline>
    <contour>
      <point x="119" y="800" type="curve"/>
      <point x="79" y="800"/>
      <point x="47" y="800"/>
      <point x="7" y="800" type="curve"/>
      <point x="7" y="778"/>
      <point x="7" y="800"/>
      <point x="7" y="778" type="curve"/>
      <point x="128" y="778"/>
      <point x="-2" y="778"/>
      <point x="119" y="778" type="curve"/>
      <point x="119" y="800"/>
      <point x="119" y="778"/>
    </contour>
    <contour>
      <point x="124" y="405" type="curve"/>
      <point x="139" y="451"/>
      <point x="191" y="516"/>
      <point x="261" y="516" type="curve"/>
      <point x="368" y="516"/>
      <point x="402" y="399"/>
      <point x="402" y="269" type="curve"/>
      <point x="402" y="144"/>
      <point x="361" y="17"/>
      <point x="261" y="17" type="curve"/>
      <point x="201" y="17"/>
      <point x="151" y="70"/>
      <point x="125" y="136" type="curve"/>
      <point x="108" y="122"/>
      <point x="128" y="131"/>
      <point x="111" y="117" type="curve"/>
      <point x="140" y="49"/>
      <point x="190" y="-5"/>
      <point x="261" y="-5" type="curve"/>
      <point x="387" y="-5"/>
      <point x="426" y="122"/>
      <point x="426" y="270" type="curve"/>
      <point x="426" y="412"/>
      <point x="389" y="538"/>
      <point x="261" y="538" type="curve"/>
      <point x="182" y="538"/>
      <point x="128" y="479"/>
      <point x="112" y="429" type="curve"/>
      <point x="124" y="412"/>
      <point x="112" y="422"/>
    </contour>
    <contour>
      <point x="129" y="0" type="curve"/>
      <point x="129" y="267"/>
      <point x="129" y="533"/>
      <point x="129" y="800" type="curve"/>
      <point x="105" y="800"/>
      <point x="129" y="800"/>
      <point x="105" y="800" type="curve"/>
      <point x="105" y="533"/>
      <point x="105" y="267"/>
      <point x="105" y="0" type="curve"/>
      <point x="129" y="0"/>
      <point x="105" y="0"/>
    </contour>
    <contour>
      <point x="119" y="22" type="curve"/>
      <point x="-2" y="22"/>
      <point x="128" y="22"/>
      <point x="7" y="22" type="curve"/>
      <point x="7" y="0"/>
      <point x="7" y="22"/>
      <point x="7" y="0" type="curve"/>
      <point x="47" y="0"/>
      <point x="79" y="0"/>
      <point x="119" y="0" type="curve"/>
      <point x="119" y="22"/>
      <point x="119" y="0"/>
    </contour>
  </outline>
</glyph>
<glyph name="q" format="1">
  <advance width="488"/>
  <unicode hex="0071"/>
  <outline>
    <contour>
      <point x="376" y="511" type="curve"/>
      <point x="490" y="511"/>
      <point x="367" y="511"/>
      <point x="481" y="511" type="curve"/>
      <point x="481" y="533"/>
      <point x="481" y="511"/>
      <point x="481" y="533" type="curve"/>
      <point x="443" y="533"/>
      <point x="413" y="533"/>
      <point x="376" y="533" type="curve"/>
      <point x="376" y="511"/>
      <point x="376" y="533"/>
    </contour>
    <contour>
      <point x="376" y="-278" type="curve"/>
      <point x="255" y="-278"/>
      <point x="385" y="-278"/>
      <point x="264" y="-278" type="curve"/>
      <point x="264" y="-300"/>
      <point x="264" y="-278"/>
      <point x="264" y="-300" type="curve"/>
      <point x="304" y="-300"/>
      <point x="336" y="-300"/>
      <point x="376" y="-300" type="curve"/>
      <point x="376" y="-278"/>
      <point x="376" y="-300"/>
    </contour>
    <contour>
      <point x="376" y="-300" type="curve"/>
      <point x="413" y="-300"/>
      <point x="443" y="-300"/>
      <point x="481" y="-300" type="curve"/>
      <point x="481" y="-278"/>
      <point x="481" y="-300"/>
      <point x="481" y="-278" type="curve"/>
      <point x="367" y="-278"/>
      <point x="490" y="-278"/>
      <point x="376" y="-278" type="curve"/>
      <point x="376" y="-300"/>
      <point x="376" y="-278"/>
    </contour>
    <contour>
      <point x="381" y="434" type="curve"/>
      <point x="352" y="503"/>
      <point x="289" y="538"/>
      <point x="227" y="538" type="curve"/>
      <point x="96" y="538"/>
      <point x="62" y="409"/>
      <point x="62" y="264" type="curve"/>
      <point x="63" y="120"/>
      <point x="101" y="-6"/>
      <point x="231" y="-6" type="curve"/>
      <point x="301" y="-6"/>
      <point x="358" y="54"/>
      <point x="381" y="121" type="curve"/>
      <point x="367" y="134"/>
      <point x="382" y="126"/>
      <point x="368" y="139" type="curve"/>
      <point x="346" y="75"/>
      <point x="293" y="16"/>
      <point x="231" y="16" type="curve"/>
      <point x="118" y="16"/>
      <point x="87" y="134"/>
      <point x="87" y="265" type="curve"/>
      <point x="87" y="396"/>
      <point x="116" y="516"/>
      <point x="228" y="516" type="curve"/>
      <point x="285" y="516"/>
      <point x="342" y="479"/>
      <point x="370" y="414" type="curve"/>
      <point x="382" y="428"/>
      <point x="369" y="420"/>
    </contour>
    <contour>
      <point x="387" y="-300" type="curve"/>
      <point x="387" y="-22"/>
      <point x="387" y="255"/>
      <point x="387" y="533" type="curve"/>
      <point x="362" y="533"/>
      <point x="387" y="533"/>
      <point x="362" y="533" type="curve"/>
      <point x="362" y="255"/>
      <point x="362" y="-22"/>
      <point x="362" y="-300" type="curve"/>
      <point x="387" y="-300"/>
      <point x="362" y="-300"/>
    </contour>
  </outline>
</glyph>
<glyph name="asciitilde" format="1">
  <advance width="532"/>
  <unicode hex="007E"/>
  <outline>
    <contour>
      <point x="423" y="344" type="curve"/>
      <point x="412" y="299"/>
      <point x="405" y="241"/>
      <point x="354" y="241" type="curve"/>
      <point x="318" y="241"/>
      <point x="298" y="261"/>
      <point x="275" y="290" type="curve"/>
      <point x="249" y="322"/>
      <point x="226" y="345"/>
      <point x="186" y="345" type="curve"/>
      <point x="118" y="345"/>
      <point x="101" y="292"/>
      <point x="89" y="224" type="curve"/>
      <point x="109" y="219"/>
      <point x="89" y="224"/>
      <point x="109" y="219" type="curve"/>
      <point x="119" y="271"/>
      <point x="129" y="323"/>
      <point x="184" y="323" type="curve"/>
      <point x="216" y="323"/>
      <point x="233" y="304"/>
      <point x="253" y="279" type="curve"/>
      <point x="282" y="244"/>
      <point x="307" y="220"/>
      <point x="352" y="220" type="curve"/>
      <point x="418" y="220"/>
      <point x="430" y="277"/>
      <point x="444" y="340" type="curve"/>
      <point x="423" y="344"/>
      <point x="444" y="340"/>
    </contour>
  </outline>
</glyph>
<glyph name="cent" format="1">
  <advance width="478"/>
  <unicode hex="00A2"/>
  <outline>
    <contour>
      <point x="260" y="-53" type="curve"/>
      <point x="260" y="-13"/>
      <point x="260" y="27"/>
      <point x="260" y="67" type="curve"/>
      <point x="235" y="67"/>
      <point x="260" y="67"/>
      <point x="235" y="67" type="curve"/>
      <point x="235" y="27"/>
      <point x="235" y="-13"/>
      <point x="235" y="-53" type="curve"/>
      <point x="260" y="-53"/>
      <point x="235" y="-53"/>
    </contour>
    <contour>
      <point x="250" y="778" type="curve"/>
      <point x="250" y="742"/>
      <point x="250" y="706"/>
      <point x="250" y="670" type="curve"/>
      <point x="274" y="670"/>
      <point x="250" y="670"/>
      <point x="274" y="670" type="curve"/>
      <point x="274" y="706"/>
      <point x="274" y="742"/>
      <point x="274" y="778" type="curve"/>
      <point x="250" y="778"/>
      <point x="274" y="778"/>
    </contour>
    <contour>
      <point x="417" y="603" type="curve"/>
      <point x="372" y="655"/>
      <point x="329" y="679"/>
      <point x="265" y="679" type="curve"/>
      <point x="112" y="679"/>
      <point x="60" y="540"/>
      <point x="60" y="366" type="curve"/>
      <point x="60" y="196"/>
      <point x="97" y="54"/>
      <point x="246" y="54" type="curve"/>
      <point x="320" y="54"/>
      <point x="367" y="89"/>
      <point x="417" y="149" type="curve"/>
      <point x="400" y="164"/>
      <point x="417" y="149"/>
      <point x="400" y="164" type="curve"/>
      <point x="357" y="111"/>
      <point x="316" y="76"/>
      <point x="248" y="76" type="curve"/>
      <point x="116" y="76"/>
      <point x="84" y="210"/>
      <point x="84" y="367" type="curve"/>
      <point x="84" y="526"/>
      <point x="129" y="656"/>
      <point x="263" y="656" type="curve"/>
      <point x="323" y="656"/>
      <point x="362" y="633"/>
      <point x="401" y="590" type="curve"/>
      <point x="417" y="603"/>
      <point x="401" y="590"/>
    </contour>
    <contour>
      <point x="395" y="603" type="curve"/>
      <point x="395" y="483"/>
      <point x="395" y="603"/>
      <point x="395" y="483" type="curve"/>
      <point x="417" y="483"/>
      <point x="395" y="483"/>
      <point x="417" y="483" type="curve"/>
      <point x="417" y="603"/>
      <point x="417" y="483"/>
      <point x="417" y="603" type="curve"/>
      <point x="395" y="603"/>
      <point x="417" y="603"/>
    </contour>
  </outline>
</glyph>
<glyph name="yen" format="1">
  <advance width="613"/>
  <unicode hex="00A5"/>
  <outline>
    <contour>
      <point x="465" y="371" type="curve"/>
      <point x="415" y="371"/>
      <point x="366" y="371"/>
      <point x="317" y="371" type="curve"/>
      <point x="317" y="347"/>
      <point x="317" y="371"/>
      <point x="317" y="347" type="curve"/>
      <point x="366" y="347"/>
      <point x="415" y="347"/>
      <point x="465" y="347" type="curve"/>
      <point x="465" y="371"/>
      <point x="465" y="347"/>
    </contour>
    <contour>
      <point x="297" y="371" type="curve"/>
      <point x="248" y="371"/>
      <point x="200" y="371"/>
      <point x="152" y="371" type="curve"/>
      <point x="152" y="347"/>
      <point x="152" y="371"/>
      <point x="152" y="347" type="curve"/>
      <point x="200" y="347"/>
      <point x="248" y="347"/>
      <point x="297" y="347" type="curve"/>
      <point x="297" y="371"/>
      <point x="297" y="347"/>
    </contour>
    <contour>
      <point x="465" y="252" type="curve"/>
      <point x="360" y="252"/>
      <point x="256" y="252"/>
      <point x="152" y="252" type="curve"/>
      <point x="152" y="228"/>
      <point x="152" y="252"/>
      <point x="152" y="228" type="curve"/>
      <point x="256" y="228"/>
      <point x="360" y="228"/>
      <point x="465" y="228" type="curve"/>
      <point x="465" y="252"/>
      <point x="465" y="228"/>
    </contour>
    <contour>
      <point x="302" y="22" type="curve"/>
      <point x="181" y="22"/>
      <point x="311" y="22"/>
      <point x="190" y="22" type="curve"/>
      <point x="190" y="0"/>
      <point x="190" y="22"/>
      <point x="190" y="0" type="curve"/>
      <point x="230" y="0"/>
      <point x="262" y="0"/>
      <point x="302" y="0" type="curve"/>
      <point x="302" y="22"/>
      <point x="302" y="0"/>
    </contour>
    <contour>
      <point x="302" y="0" type="curve"/>
      <point x="342" y="0"/>
      <point x="374" y="0"/>
      <point x="414" y="0" type="curve"/>
      <point x="414" y="22"/>
      <point x="414" y="0"/>
      <point x="414" y="22" type="curve"/>
      <point x="293" y="22"/>
      <point x="423" y="22"/>
      <point x="302" y="22" type="curve"/>
      <point x="302" y="0"/>
      <point x="302" y="22"/>
    </contour>
    <contour>
      <point x="467" y="722" type="curve"/>
      <point x="427" y="722"/>
      <point x="395" y="722"/>
      <point x="355" y="722" type="curve"/>
      <point x="355" y="700"/>
      <point x="355" y="722"/>
      <point x="355" y="700" type="curve"/>
      <point x="476" y="700"/>
      <point x="346" y="700"/>
      <point x="467" y="700" type="curve"/>
      <point x="467" y="722"/>
      <point x="467" y="700"/>
    </contour>
    <contour>
      <point x="146" y="722" type="curve"/>
      <point x="106" y="722"/>
      <point x="74" y="722"/>
      <point x="34" y="722" type="curve"/>
      <point x="34" y="700"/>
      <point x="34" y="722"/>
      <point x="34" y="700" type="curve"/>
      <point x="155" y="700"/>
      <point x="25" y="700"/>
      <point x="146" y="700" type="curve"/>
      <point x="146" y="722"/>
      <point x="146" y="700"/>
    </contour>
    <contour>
      <point x="146" y="700" type="curve"/>
      <point x="267" y="700"/>
      <point x="137" y="700"/>
      <point x="258" y="700" type="curve"/>
      <point x="258" y="722"/>
      <point x="258" y="700"/>
      <point x="258" y="722" type="curve"/>
      <point x="218" y="722"/>
      <point x="186" y="722"/>
      <point x="146" y="722" type="curve"/>
      <point x="146" y="700"/>
      <point x="146" y="722"/>
    </contour>
    <contour>
      <point x="467" y="700" type="curve"/>
      <point x="588" y="700"/>
      <point x="458" y="700"/>
      <point x="579" y="700" type="curve"/>
      <point x="579" y="722"/>
      <point x="579" y="700"/>
      <point x="579" y="722" type="curve"/>
      <point x="539" y="722"/>
      <point x="507" y="722"/>
      <point x="467" y="722" type="curve"/>
      <point x="467" y="700"/>
      <point x="467" y="722"/>
    </contour>
    <contour>
      <point x="124" y="722" type="curve"/>
      <point x="179" y="594"/>
      <point x="234" y="465"/>
      <point x="289" y="337" type="curve"/>
      <point x="315" y="337"/>
      <point x="289" y="337"/>
      <point x="315" y="337" type="curve"/>
      <point x="260" y="465"/>
      <point x="205" y="594"/>
      <point x="151" y="722" type="curve"/>
      <point x="124" y="722"/>
      <point x="151" y="722"/>
    </contour>
    <contour>
      <point x="462" y="722" type="curve"/>
      <point x="405" y="594"/>
      <point x="347" y="465"/>
      <point x="289" y="337" type="curve"/>
      <point x="315" y="337"/>
      <point x="289" y="337"/>
      <point x="315" y="337" type="curve"/>
      <point x="373" y="465"/>
      <point x="431" y="594"/>
      <point x="489" y="722" type="curve"/>
      <point x="462" y="722"/>
      <point x="489" y="722"/>
    </contour>
    <contour>
      <point x="315" y="0" type="curve"/>
      <point x="315" y="115"/>
      <point x="315" y="231"/>
      <point x="315" y="346" type="curve"/>
      <point x="289" y="346"/>
      <point x="315" y="346"/>
      <point x="289" y="346" type="curve"/>
      <point x="289" y="231"/>
      <point x="289" y="115"/>
      <point x="289" y="0" type="curve"/>
      <point x="315" y="0"/>
      <point x="289" y="0"/>
    </contour>
  </outline>
</glyph>
<glyph name="plusminus" format="1">
  <advance width="628"/>
  <unicode hex="00B1"/>
  <outline>
    <contour>
      <point x="73" y="17" type="line"/>
      <point x="555" y="17" type="line"/>
      <point x="555" y="41" type="line"/>
      <point x="73" y="41" type="line"/>
    </contour>
    <contour>
      <point x="73" y="297" type="curve"/>
      <point x="555" y="297" type="line"/>
      <point x="555" y="321"/>
      <point x="555" y="297"/>
      <point x="555" y="321" type="curve"/>
      <point x="73" y="321" type="line"/>
      <point x="73" y="297"/>
      <point x="73" y="321"/>
    </contour>
    <contour>
      <point x="326" y="18" type="curve"/>
      <point x="326" y="588" type="line"/>
      <point x="302" y="588"/>
      <point x="326" y="588"/>
      <point x="302" y="588" type="curve"/>
      <point x="302" y="18" type="line"/>
      <point x="326" y="18"/>
      <point x="302" y="18"/>
    </contour>
  </outline>
</glyph>
<glyph name="acute" format="1">
  <advance width="167"/>
  <unicode hex="00B4"/>
  <outline>
    <contour>
      <point x="18" y="590" type="move" name="_top"/>
    </contour>
    <contour>
      <point x="29" y="590" type="line"/>
      <point x="102" y="756" type="line"/>
      <point x="71" y="756" type="line"/>
      <point x="5" y="590" type="line"/>
    </contour>
  </outline>
</glyph>
<glyph name="Aring" format="1">
  <advance width="598"/>
  <unicode hex="00C5"/>
  <outline>
    <contour>
      <point x="89" y="22" type="curve"/>
      <point x="-43" y="22"/>
      <point x="109" y="22"/>
      <point x="-23" y="22" type="curve"/>
      <point x="-23" y="0"/>
      <point x="-23" y="22"/>
      <point x="-23" y="0" type="curve"/>
      <point x="21" y="0"/>
      <point x="45" y="0"/>
      <point x="89" y="0" type="curve"/>
      <point x="89" y="22"/>
      <point x="89" y="0"/>
    </contour>
    <contour>
      <point x="89" y="0" type="curve"/>
      <point x="135" y="0"/>
      <point x="69" y="0"/>
      <point x="206" y="0" type="curve"/>
      <point x="206" y="22"/>
      <point x="206" y="0"/>
      <point x="206" y="22" type="curve"/>
      <point x="69" y="22"/>
      <point x="226" y="22"/>
      <point x="89" y="22" type="curve"/>
      <point x="89" y="0"/>
      <point x="89" y="22"/>
    </contour>
    <contour>
      <point x="472" y="0" type="curve"/>
      <point x="516" y="0"/>
      <point x="540" y="0"/>
      <point x="584" y="0" type="curve"/>
      <point x="584" y="22"/>
      <point x="584" y="0"/>
      <point x="584" y="22" type="curve"/>
      <point x="452" y="22"/>
      <point x="604" y="22"/>
      <point x="472" y="22" type="curve"/>
      <point x="472" y="0"/>
      <point x="472" y="22"/>
    </contour>
    <contour>
      <point x="472" y="22" type="curve"/>
      <point x="334" y="22"/>
      <point x="492" y="22"/>
      <point x="354" y="22" type="curve"/>
      <point x="354" y="0"/>
      <point x="354" y="22"/>
      <point x="354" y="0" type="curve"/>
      <point x="400" y="0"/>
      <point x="426" y="0"/>
      <point x="472" y="0" type="curve"/>
      <point x="472" y="22"/>
      <point x="472" y="0"/>
    </contour>
    <contour>
      <point x="407" y="277" type="curve"/>
      <point x="326" y="277"/>
      <point x="246" y="277"/>
      <point x="165" y="277" type="curve"/>
      <point x="155" y="254"/>
      <point x="165" y="277"/>
      <point x="155" y="254" type="curve"/>
      <point x="242" y="254"/>
      <point x="328" y="254"/>
      <point x="415" y="254" type="curve"/>
      <point x="407" y="277"/>
      <point x="415" y="254"/>
    </contour>
    <contour>
      <point x="492" y="0" type="curve"/>
      <point x="429" y="241"/>
      <point x="366" y="481"/>
      <point x="303" y="722" type="curve"/>
      <point x="281" y="722"/>
      <point x="303" y="722"/>
      <point x="281" y="722" type="curve"/>
      <point x="343" y="481"/>
      <point x="405" y="241"/>
      <point x="467" y="0" type="curve"/>
      <point x="492" y="0"/>
      <point x="467" y="0"/>
    </contour>
    <contour>
      <point x="94" y="0" type="curve"/>
      <point x="163" y="241"/>
      <point x="232" y="481"/>
      <point x="301" y="722" type="curve"/>
      <point x="279" y="722"/>
      <point x="301" y="722"/>
      <point x="279" y="722" type="curve"/>
      <point x="209" y="481"/>
      <point x="138" y="241"/>
      <point x="67" y="0" type="curve"/>
      <point x="94" y="0"/>
      <point x="67" y="0"/>
    </contour>
    <contour>
      <point x="208" y="940" type="curve"/>
      <point x="208" y="875"/>
      <point x="232" y="824"/>
      <point x="291" y="824" type="curve"/>
      <point x="351" y="824"/>
      <point x="376" y="874"/>
      <point x="376" y="940" type="curve"/>
      <point x="376" y="1006"/>
      <point x="350" y="1057"/>
      <point x="289" y="1057" type="curve"/>
      <point x="231" y="1057"/>
      <point x="208" y="1006"/>
      <point x="208" y="940" type="curve"/>
      <point x="231" y="940"/>
      <point x="208" y="940"/>
      <point x="231" y="940" type="curve"/>
      <point x="231" y="992"/>
      <point x="244" y="1035"/>
      <point x="289" y="1035" type="curve"/>
      <point x="336" y="1035"/>
      <point x="352" y="993"/>
      <point x="352" y="940" type="curve"/>
      <point x="352" y="888"/>
      <point x="337" y="845"/>
      <point x="291" y="845" type="curve"/>
      <point x="245" y="845"/>
      <point x="231" y="888"/>
      <point x="231" y="940" type="curve"/>
      <point x="208" y="940"/>
      <point x="231" y="940"/>
    </contour>
  </outline>
</glyph>
<glyph name="iacute" format="1">
  <advance width="260"/>
  <unicode hex="00ED"/>
  <outline>
    <contour>
      <point x="146" y="22" type="curve"/>
      <point x="25" y="22"/>
      <point x="155" y="22"/>
      <point x="34" y="22" type="curve"/>
      <point x="34" y="0"/>
      <point x="34" y="22"/>
      <point x="34" y="0" type="curve"/>
      <point x="74" y="0"/>
      <point x="106" y="0"/>
      <point x="146" y="0" type="curve"/>
      <point x="146" y="22"/>
      <point x="146" y="0"/>
    </contour>
    <contour>
      <point x="146" y="0" type="curve"/>
      <point x="183" y="0"/>
      <point x="213" y="0"/>
      <point x="251" y="0" type="curve"/>
      <point x="251" y="22"/>
      <point x="251" y="0"/>
      <point x="251" y="22" type="curve"/>
      <point x="137" y="22"/>
      <point x="260" y="22"/>
      <point x="146" y="22" type="curve"/>
      <point x="146" y="0"/>
      <point x="146" y="22"/>
    </contour>
    <contour>
      <point x="146" y="533" type="curve"/>
      <point x="106" y="533"/>
      <point x="74" y="533"/>
      <point x="34" y="533" type="curve"/>
      <point x="34" y="511"/>
      <point x="34" y="533"/>
      <point x="34" y="511" type="curve"/>
      <point x="155" y="511"/>
      <point x="25" y="511"/>
      <point x="146" y="511" type="curve"/>
      <point x="146" y="533"/>
      <point x="146" y="511"/>
    </contour>
    <contour>
      <point x="159" y="0" type="curve"/>
      <point x="159" y="178"/>
      <point x="159" y="355"/>
      <point x="159" y="533" type="curve"/>
      <point x="133" y="533"/>
      <point x="159" y="533"/>
      <point x="133" y="533" type="curve"/>
      <point x="133" y="355"/>
      <point x="133" y="178"/>
      <point x="133" y="0" type="curve"/>
      <point x="159" y="0"/>
      <point x="133" y="0"/>
    </contour>
    <contour>
      <point x="155" y="671" type="line"/>
      <point x="228" y="837" type="line"/>
      <point x="197" y="837" type="line"/>
      <point x="131" y="671" type="line"/>
    </contour>
  </outline>
</glyph>
<glyph name="eth" format="1">
  <advance width="436"/>
  <unicode hex="00F0"/>
  <outline>
    <contour>
      <point x="86" y="548" type="curve"/>
      <point x="147" y="610"/>
      <point x="208" y="671"/>
      <point x="269" y="732" type="curve"/>
      <point x="286" y="715"/>
      <point x="269" y="732"/>
      <point x="286" y="715" type="curve"/>
      <point x="225" y="654"/>
      <point x="164" y="593"/>
      <point x="102" y="532" type="curve"/>
      <point x="86" y="548"/>
      <point x="102" y="532"/>
    </contour>
    <contour>
      <point x="350" y="226" type="curve"/>
      <point x="329" y="295"/>
      <point x="293" y="379"/>
      <point x="206" y="379" type="curve"/>
      <point x="114" y="379"/>
      <point x="82" y="299"/>
      <point x="82" y="195" type="curve"/>
      <point x="82" y="94"/>
      <point x="114" y="11"/>
      <point x="202" y="11" type="curve"/>
      <point x="310" y="11"/>
      <point x="345" y="113"/>
      <point x="345" y="235" type="curve"/>
      <point x="345" y="457"/>
      <point x="260" y="616"/>
      <point x="55" y="707" type="curve"/>
      <point x="65" y="730"/>
      <point x="55" y="707"/>
      <point x="65" y="730" type="curve"/>
      <point x="279" y="636"/>
      <point x="370" y="473"/>
      <point x="370" y="234" type="curve"/>
      <point x="370" y="96"/>
      <point x="328" y="-12"/>
      <point x="203" y="-12" type="curve"/>
      <point x="97" y="-12"/>
      <point x="57" y="79"/>
      <point x="57" y="196" type="curve"/>
      <point x="57" y="313"/>
      <point x="98" y="402"/>
      <point x="204" y="402" type="curve"/>
      <point x="299" y="402"/>
      <point x="337" y="330"/>
      <point x="365" y="234" type="curve"/>
      <point x="350" y="226"/>
      <point x="365" y="234"/>
    </contour>
  </outline>
</glyph>
<glyph name="ntilde" format="1">
  <advance width="521"/>
  <unicode hex="00F1"/>
  <outline>
    <contour>
      <point x="152" y="340" type="curve"/>
      <point x="160" y="436"/>
      <point x="222" y="516"/>
      <point x="292" y="516" type="curve"/>
      <point x="374" y="516"/>
      <point x="394" y="438"/>
      <point x="394" y="341" type="curve"/>
      <point x="394" y="228"/>
      <point x="394" y="114"/>
      <point x="394" y="0" type="curve"/>
      <point x="418" y="0"/>
      <point x="394" y="0"/>
      <point x="418" y="0" type="curve"/>
      <point x="418" y="115"/>
      <point x="418" y="229"/>
      <point x="418" y="344" type="curve"/>
      <point x="418" y="453"/>
      <point x="393" y="538"/>
      <point x="296" y="538" type="curve"/>
      <point x="212" y="538"/>
      <point x="146" y="462"/>
      <point x="140" y="357" type="curve"/>
      <point x="153" y="344"/>
      <point x="138" y="353"/>
    </contour>
    <contour>
      <point x="405" y="0" type="curve"/>
      <point x="445" y="0"/>
      <point x="477" y="0"/>
      <point x="517" y="0" type="curve"/>
      <point x="517" y="22"/>
      <point x="517" y="0"/>
      <point x="517" y="22" type="curve"/>
      <point x="396" y="22"/>
      <point x="526" y="22"/>
      <point x="405" y="22" type="curve"/>
      <point x="405" y="0"/>
      <point x="405" y="22"/>
    </contour>
    <contour>
      <point x="146" y="22" type="curve"/>
      <point x="25" y="22"/>
      <point x="155" y="22"/>
      <point x="34" y="22" type="curve"/>
      <point x="34" y="0"/>
      <point x="34" y="22"/>
      <point x="34" y="0" type="curve"/>
      <point x="74" y="0"/>
      <point x="106" y="0"/>
      <point x="146" y="0" type="curve"/>
      <point x="146" y="22"/>
      <point x="146" y="0"/>
    </contour>
    <contour>
      <point x="146" y="0" type="curve"/>
      <point x="180" y="0"/>
      <point x="130" y="0"/>
      <point x="234" y="0" type="curve"/>
      <point x="234" y="22"/>
      <point x="234" y="0"/>
      <point x="234" y="22" type="curve"/>
      <point x="130" y="22"/>
      <point x="250" y="22"/>
      <point x="146" y="22" type="curve"/>
      <point x="146" y="0"/>
      <point x="146" y="22"/>
    </contour>
    <contour>
      <point x="158" y="0" type="curve"/>
      <point x="158" y="178"/>
      <point x="158" y="355"/>
      <point x="158" y="533" type="curve"/>
      <point x="134" y="533"/>
      <point x="158" y="533"/>
      <point x="134" y="533" type="curve"/>
      <point x="134" y="355"/>
      <point x="134" y="178"/>
      <point x="134" y="0" type="curve"/>
      <point x="158" y="0"/>
      <point x="134" y="0"/>
    </contour>
    <contour>
      <point x="146" y="533" type="curve"/>
      <point x="106" y="533"/>
      <point x="74" y="533"/>
      <point x="34" y="533" type="curve"/>
      <point x="34" y="511"/>
      <point x="34" y="533"/>
      <point x="34" y="511" type="curve"/>
      <point x="155" y="511"/>
      <point x="25" y="511"/>
      <point x="146" y="511" type="curve"/>
      <point x="146" y="533"/>
      <point x="146" y="511"/>
    </contour>
    <contour>
      <point x="406" y="795" type="curve"/>
      <point x="397" y="745"/>
      <point x="392" y="692"/>
      <point x="358" y="692" type="curve"/>
      <point x="328" y="692"/>
      <point x="315" y="714"/>
      <point x="299" y="741" type="curve"/>
      <point x="280" y="771"/>
      <point x="265" y="796"/>
      <point x="230" y="796" type="curve"/>
      <point x="173" y="796"/>
      <point x="165" y="740"/>
      <point x="156" y="677" type="curve"/>
      <point x="176" y="671"/>
      <point x="156" y="677"/>
      <point x="176" y="671" type="curve"/>
      <point x="184" y="724"/>
      <point x="188" y="774"/>
      <point x="230" y="774" type="curve"/>
      <point x="258" y="774"/>
      <point x="267" y="751"/>
      <point x="281" y="727" type="curve"/>
      <point x="301" y="695"/>
      <point x="319" y="671"/>
      <point x="356" y="671" type="curve"/>
      <point x="413" y="671"/>
      <point x="416" y="730"/>
      <point x="427" y="791" type="curve"/>
      <point x="406" y="795"/>
      <point x="427" y="791"/>
    </contour>
  </outline>
</glyph>
<glyph name="oe" format="1">
  <advance width="725"/>
  <unicode hex="0153"/>
  <outline>
    <contour>
      <point x="88" y="268" type="curve"/>
      <point x="88" y="406"/>
      <point x="114" y="517"/>
      <point x="225" y="517" type="curve"/>
      <point x="341" y="517"/>
      <point x="366" y="404"/>
      <point x="366" y="266" type="curve"/>
      <point x="366" y="129"/>
      <point x="340" y="17"/>
      <point x="228" y="17" type="curve"/>
      <point x="108" y="17"/>
      <point x="88" y="131"/>
      <point x="88" y="268" type="curve"/>
      <point x="64" y="268"/>
      <point x="88" y="268"/>
      <point x="64" y="268" type="curve"/>
      <point x="64" y="117"/>
      <point x="95" y="-5"/>
      <point x="227" y="-5" type="curve"/>
      <point x="358" y="-5"/>
      <point x="390" y="115"/>
      <point x="390" y="266" type="curve"/>
      <point x="390" y="417"/>
      <point x="358" y="538"/>
      <point x="226" y="538" type="curve"/>
      <point x="96" y="538"/>
      <point x="64" y="417"/>
      <point x="64" y="268" type="curve"/>
      <point x="88" y="268"/>
      <point x="64" y="268"/>
    </contour>
    <contour>
      <point x="380" y="273" type="curve"/>
      <point x="471" y="273"/>
      <point x="563" y="273"/>
      <point x="654" y="273" type="curve"/>
      <point x="659" y="273"/>
      <point x="654" y="273"/>
      <point x="659" y="273" type="curve"/>
      <point x="659" y="276"/>
      <point x="659" y="273"/>
      <point x="659" y="276" type="curve"/>
      <point x="659" y="285"/>
      <point x="659" y="294"/>
      <point x="659" y="303" type="curve"/>
      <point x="659" y="435"/>
      <point x="631" y="538"/>
      <point x="518" y="538" type="curve"/>
      <point x="394" y="538"/>
      <point x="367" y="425"/>
      <point x="367" y="281" type="curve"/>
      <point x="367" y="122"/>
      <point x="396" y="-5"/>
      <point x="530" y="-5" type="curve"/>
      <point x="588" y="-5"/>
      <point x="624" y="26"/>
      <point x="659" y="76" type="curve"/>
      <point x="641" y="90"/>
      <point x="659" y="76"/>
      <point x="641" y="90" type="curve"/>
      <point x="612" y="48"/>
      <point x="577" y="17"/>
      <point x="530" y="17" type="curve"/>
      <point x="415" y="17"/>
      <point x="392" y="136"/>
      <point x="392" y="281" type="curve"/>
      <point x="392" y="410"/>
      <point x="412" y="516"/>
      <point x="516" y="516" type="curve"/>
      <point x="615" y="516"/>
      <point x="636" y="422"/>
      <point x="636" y="305" type="curve"/>
      <point x="636" y="295"/>
      <point x="636" y="286"/>
      <point x="636" y="276" type="curve"/>
      <point x="639" y="279"/>
      <point x="643" y="282"/>
      <point x="645" y="285" type="curve"/>
      <point x="648" y="289"/>
      <point x="651" y="291"/>
      <point x="654" y="295" type="curve"/>
      <point x="563" y="295"/>
      <point x="471" y="295"/>
      <point x="380" y="295" type="curve"/>
      <point x="380" y="273"/>
      <point x="380" y="295"/>
    </contour>
  </outline>
</glyph>
<glyph name="Racute" format="1">
  <advance width="599"/>
  <unicode hex="0154"/>
  <outline>
    <contour>
      <point x="466" y="0" type="curve"/>
      <point x="510" y="0"/>
      <point x="534" y="0"/>
      <point x="579" y="0" type="curve"/>
      <point x="579" y="22"/>
      <point x="579" y="0"/>
      <point x="579" y="22" type="curve"/>
      <point x="446" y="22"/>
      <point x="599" y="22"/>
      <point x="466" y="22" type="curve"/>
      <point x="466" y="0"/>
      <point x="466" y="22"/>
    </contour>
    <contour>
      <point x="151" y="722" type="curve"/>
      <point x="107" y="722"/>
      <point x="83" y="722"/>
      <point x="39" y="722" type="curve"/>
      <point x="39" y="700"/>
      <point x="39" y="722"/>
      <point x="39" y="700" type="curve"/>
      <point x="171" y="700"/>
      <point x="19" y="700"/>
      <point x="151" y="700" type="curve"/>
      <point x="151" y="722"/>
      <point x="151" y="700"/>
    </contour>
    <contour>
      <point x="151" y="22" type="curve"/>
      <point x="19" y="22"/>
      <point x="171" y="22"/>
      <point x="39" y="22" type="curve"/>
      <point x="39" y="0"/>
      <point x="39" y="22"/>
      <point x="39" y="0" type="curve"/>
      <point x="83" y="0"/>
      <point x="107" y="0"/>
      <point x="151" y="0" type="curve"/>
      <point x="151" y="22"/>
      <point x="151" y="0"/>
    </contour>
    <contour>
      <point x="151" y="0" type="curve"/>
      <point x="195" y="0"/>
      <point x="131" y="0"/>
      <point x="264" y="0" type="curve"/>
      <point x="264" y="22"/>
      <point x="264" y="0"/>
      <point x="264" y="22" type="curve"/>
      <point x="131" y="22"/>
      <point x="284" y="22"/>
      <point x="151" y="22" type="curve"/>
      <point x="151" y="0"/>
      <point x="151" y="22"/>
    </contour>
    <contour>
      <point x="282" y="354" type="curve"/>
      <point x="342" y="236"/>
      <point x="402" y="118"/>
      <point x="461" y="0" type="curve"/>
      <point x="490" y="0"/>
      <point x="459" y="0"/>
      <point x="488" y="0" type="curve"/>
      <point x="429" y="118"/>
      <point x="369" y="236"/>
      <point x="309" y="354" type="curve"/>
      <point x="280" y="354"/>
      <point x="311" y="354"/>
    </contour>
    <contour>
      <point x="164" y="0" type="curve"/>
      <point x="164" y="241"/>
      <point x="164" y="481"/>
      <point x="164" y="722" type="curve"/>
      <point x="140" y="722"/>
      <point x="164" y="722"/>
      <point x="140" y="722" type="curve"/>
      <point x="140" y="481"/>
      <point x="140" y="241"/>
      <point x="140" y="0" type="curve"/>
      <point x="164" y="0"/>
      <point x="140" y="0"/>
    </contour>
    <contour>
      <point x="154" y="340" type="curve"/>
      <point x="193" y="340"/>
      <point x="232" y="340"/>
      <point x="272" y="340" type="curve"/>
      <point x="380" y="340"/>
      <point x="430" y="420"/>
      <point x="430" y="537" type="curve"/>
      <point x="430" y="650"/>
      <point x="377" y="722"/>
      <point x="269" y="722" type="curve"/>
      <point x="227" y="722"/>
      <point x="195" y="722"/>
      <point x="154" y="722" type="curve"/>
      <point x="154" y="700"/>
      <point x="154" y="722"/>
      <point x="154" y="700" type="curve"/>
      <point x="194" y="700"/>
      <point x="224" y="700"/>
      <point x="265" y="700" type="curve"/>
      <point x="360" y="700"/>
      <point x="405" y="635"/>
      <point x="405" y="535" type="curve"/>
      <point x="405" y="434"/>
      <point x="367" y="362"/>
      <point x="275" y="362" type="curve"/>
      <point x="235" y="362"/>
      <point x="194" y="362"/>
      <point x="154" y="362" type="curve"/>
      <point x="154" y="340"/>
      <point x="154" y="362"/>
    </contour>
    <contour>
      <point x="253" y="825" type="line"/>
      <point x="326" y="991" type="line"/>
      <point x="295" y="991" type="line"/>
      <point x="229" y="825" type="line"/>
    </contour>
  </outline>
</glyph>
<glyph name="Scedilla" format="1">
  <advance width="443"/>
  <unicode hex="015E"/>
  <outline>
    <contour>
      <point x="326" y="663" type="curve"/>
      <point x="326" y="543"/>
      <point x="326" y="673"/>
      <point x="326" y="553" type="curve"/>
      <point x="348" y="553"/>
      <point x="326" y="553"/>
      <point x="348" y="553" type="curve"/>
      <point x="348" y="673"/>
      <point x="348" y="543"/>
      <point x="348" y="663" type="curve"/>
      <point x="326" y="663"/>
      <point x="348" y="663"/>
    </contour>
    <contour>
      <point x="92" y="58" type="curve"/>
      <point x="92" y="178"/>
      <point x="92" y="48"/>
      <point x="92" y="168" type="curve"/>
      <point x="70" y="168"/>
      <point x="92" y="168"/>
      <point x="70" y="168" type="curve"/>
      <point x="70" y="48"/>
      <point x="70" y="178"/>
      <point x="70" y="58" type="curve"/>
      <point x="92" y="58"/>
      <point x="70" y="58"/>
    </contour>
    <contour>
      <point x="70" y="58" type="curve"/>
      <point x="102" y="25"/>
      <point x="149" y="-5"/>
      <point x="208" y="-5" type="curve"/>
      <point x="312" y="-5"/>
      <point x="371" y="62"/>
      <point x="371" y="169" type="curve"/>
      <point x="371" y="273"/>
      <point x="317" y="328"/>
      <point x="232" y="388" type="curve"/>
      <point x="160" y="437"/>
      <point x="110" y="479"/>
      <point x="110" y="563" type="curve"/>
      <point x="110" y="645"/>
      <point x="146" y="704"/>
      <point x="220" y="704" type="curve"/>
      <point x="268" y="704"/>
      <point x="314" y="673"/>
      <point x="336" y="645" type="curve"/>
      <point x="341" y="652"/>
      <point x="344" y="657"/>
      <point x="348" y="663" type="curve"/>
      <point x="314" y="700"/>
      <point x="276" y="726"/>
      <point x="221" y="726" type="curve"/>
      <point x="130" y="726"/>
      <point x="85" y="659"/>
      <point x="85" y="562" type="curve"/>
      <point x="85" y="469"/>
      <point x="138" y="423"/>
      <point x="216" y="369" type="curve"/>
      <point x="295" y="315"/>
      <point x="347" y="264"/>
      <point x="347" y="169" type="curve"/>
      <point x="347" y="82"/>
      <point x="291" y="17"/>
      <point x="210" y="17" type="curve"/>
      <point x="155" y="17"/>
      <point x="113" y="48"/>
      <point x="83" y="78" type="curve"/>
      <point x="78" y="70"/>
      <point x="75" y="66"/>
    </contour>
    <contour>
      <point x="197" y="11" type="curve"/>
      <point x="186" y="-16"/>
      <point x="176" y="-43"/>
      <point x="166" y="-69" type="curve"/>
      <point x="183" y="-87"/>
      <point x="166" y="-69"/>
      <point x="183" y="-87" type="curve"/>
      <point x="193" y="-59"/>
      <point x="205" y="-31"/>
      <point x="215" y="-4" type="curve"/>
      <point x="197" y="11"/>
      <point x="215" y="-4"/>
    </contour>
    <contour>
      <point x="183" y="-87" type="curve"/>
      <point x="192" y="-78"/>
      <point x="199" y="-74"/>
      <point x="212" y="-74" type="curve"/>
      <point x="239" y="-74"/>
      <point x="245" y="-100"/>
      <point x="245" y="-131" type="curve"/>
      <point x="245" y="-163"/>
      <point x="232" y="-186"/>
      <point x="203" y="-186" type="curve"/>
      <point x="184" y="-186"/>
      <point x="170" y="-182"/>
      <point x="156" y="-169" type="curve"/>
      <point x="146" y="-186"/>
      <point x="156" y="-169"/>
      <point x="146" y="-186" type="curve"/>
      <point x="163" y="-201"/>
      <point x="179" y="-208"/>
      <point x="202" y="-208" type="curve"/>
      <point x="246" y="-208"/>
      <point x="270" y="-176"/>
      <point x="270" y="-131" type="curve"/>
      <point x="270" y="-87"/>
      <point x="253" y="-52"/>
      <point x="214" y="-52" type="curve"/>
      <point x="195" y="-52"/>
      <point x="182" y="-58"/>
      <point x="166" y="-69" type="curve"/>
      <point x="183" y="-87"/>
      <point x="166" y="-69"/>
    </contour>
  </outline>
</glyph>
<glyph name="dotaccent" format="1">
  <advance width="506"/>
  <unicode hex="02D9"/>
  <outline>
    <contour>
      <point x="238" y="655" type="move" name="_top"/>
    </contour>
    <contour>
      <point x="255" y="669" type="curve"/>
      <point x="255" y="680"/>
      <point x="248" y="686"/>
      <point x="237" y="686" type="curve"/>
      <point x="226" y="686"/>
      <point x="220" y="679"/>
      <point x="220" y="669" type="curve"/>
      <point x="255" y="669"/>
      <point x="220" y="669"/>
      <point x="255" y="669" type="curve"/>
      <point x="255" y="658"/>
      <point x="248" y="652"/>
      <point x="237" y="652" type="curve"/>
      <point x="226" y="652"/>
      <point x="220" y="658"/>
      <point x="220" y="669" type="curve"/>
      <point x="255" y="669"/>
      <point x="220" y="669"/>
    </contour>
  </outline>
</glyph>
<glyph name="dvE" format="1">
  <advance width="445"/>
  <unicode hex="090F"/>
  <outline>
    <contour>
      <point x="267" y="253" type="line"/>
      <point x="342" y="320"/>
      <point x="369" y="390"/>
      <point x="369" y="486" type="curve"/>
      <point x="369" y="561"/>
      <point x="369" y="635"/>
      <point x="369" y="710" type="curve"/>
      <point x="345" y="710"/>
      <point x="369" y="710"/>
      <point x="345" y="710" type="curve"/>
      <point x="345" y="634"/>
      <point x="345" y="559"/>
      <point x="345" y="483" type="curve"/>
      <point x="345" y="396"/>
      <point x="321" y="333"/>
      <point x="253" y="272" type="curve"/>
    </contour>
    <contour>
      <point x="316" y="10" type="line"/>
      <point x="165" y="78"/>
      <point x="95" y="208"/>
      <point x="95" y="366" type="curve"/>
      <point x="95" y="481"/>
      <point x="95" y="595"/>
      <point x="95" y="710" type="curve"/>
      <point x="71" y="710"/>
      <point x="95" y="710"/>
      <point x="71" y="710" type="curve"/>
      <point x="71" y="594"/>
      <point x="71" y="478"/>
      <point x="71" y="362" type="curve"/>
      <point x="71" y="195"/>
      <point x="148" y="59"/>
      <point x="307" y="-12" type="curve"/>
    </contour>
    <component base="dvTopbar" xScale="0.707129008964" xOffset="-14"/>
  </outline>
</glyph>
<glyph name="dvKA" format="1">
  <advance width="684"/>
  <unicode hex="0915"/>
  <outline>
    <contour>
      <point x="338" y="0" type="move" name="blwm.virama"/>
    </contour>
    <contour>
      <point x="338" y="721" type="move" name="abvm.e"/>
    </contour>
    <contour>
      <point x="338" y="0" type="move" name="blwm.u"/>
    </contour>
    <component base="dvTopbar" xScale="1.0565367722" xOffset="-12"/>
    <component base="dvK_left" xOffset="-21"/>
    <component base="dvStemright" xOffset="232"/>
    <component base="dvKA_right" xOffset="-21"/>
  </outline>
</glyph>
<glyph name="dvTHA" format="1">
  <advance width="560"/>
  <unicode hex="0925"/>
  <outline>
    <contour>
      <point x="83" y="411" type="curve"/>
      <point x="83" y="246"/>
      <point x="113" y="100"/>
      <point x="256" y="100" type="curve"/>
      <point x="370" y="100"/>
      <point x="422" y="198"/>
      <point x="445" y="323" type="curve"/>
      <point x="439" y="326"/>
      <point x="433" y="327"/>
      <point x="427" y="330" type="curve"/>
      <point x="403" y="216"/>
      <point x="357" y="122"/>
      <point x="257" y="122" type="curve"/>
      <point x="134" y="122"/>
      <point x="107" y="247"/>
      <point x="107" y="389" type="curve"/>
      <point x="98" y="397"/>
      <point x="92" y="403"/>
    </contour>
    <contour>
      <point x="106" y="559" type="line"/>
      <point x="113" y="638"/>
      <point x="135" y="705"/>
      <point x="206" y="705" type="curve"/>
      <point x="274" y="705"/>
      <point x="302" y="644"/>
      <point x="303" y="568" type="curve"/>
      <point x="303" y="454"/>
      <point x="207" y="411"/>
      <point x="83" y="411" type="curve"/>
      <point x="92" y="403"/>
      <point x="98" y="397"/>
      <point x="107" y="389" type="curve"/>
      <point x="231" y="389"/>
      <point x="327" y="447"/>
      <point x="327" y="568" type="curve"/>
      <point x="327" y="657"/>
      <point x="289" y="727"/>
      <point x="207" y="727" type="curve"/>
      <point x="124" y="727"/>
      <point x="90" y="654"/>
      <point x="83" y="563" type="curve"/>
    </contour>
    <component base="dvStemright" xOffset="337"/>
  </outline>
</glyph>
<glyph name="dvmII" format="1">
  <advance width="186"/>
  <unicode hex="0940"/>
  <outline>
    <contour>
      <point x="103" y="706" type="line"/>
      <point x="93" y="811" type="line" smooth="yes"/>
      <point x="85" y="895"/>
      <point x="65" y="965"/>
      <point x="-7" y="965" type="curve"/>
      <point x="-124" y="965"/>
      <point x="-121" y="842"/>
      <point x="-121" y="706" type="curve"/>
      <point x="-101" y="706" type="line"/>
      <point x="-101" y="829"/>
      <point x="-101" y="944"/>
      <point x="-10" y="944" type="curve"/>
      <point x="51" y="944"/>
      <point x="66" y="883"/>
      <point x="73" y="811" type="curve" smooth="yes"/>
      <point x="83" y="706" type="line"/>
    </contour>
    <component base="dvmAA" xOffset="-35"/>
  </outline>
</glyph>
<glyph name="dvmAI" format="1">
  <advance width="0"/>
  <unicode hex="0948"/>
  <outline>
    <contour>
      <point x="-65" y="718" type="move" name="_abvm.e"/>
    </contour>
    <contour>
      <point x="-316" y="803" type="line"/>
      <point x="-303" y="817"/>
      <point x="-281" y="827"/>
      <point x="-257" y="827" type="curve"/>
      <point x="-159" y="827"/>
      <point x="-114" y="758"/>
      <point x="-89" y="703" type="curve"/>
      <point x="-68" y="709" type="line"/>
      <point x="-99" y="786"/>
      <point x="-146" y="852"/>
      <point x="-255" y="852" type="curve"/>
      <point x="-286" y="852"/>
      <point x="-313" y="843"/>
      <point x="-332" y="822" type="curve"/>
    </contour>
    <contour>
      <point x="-336" y="955" type="line"/>
      <point x="-314" y="976"/>
      <point x="-291" y="992"/>
      <point x="-259" y="992" type="curve"/>
      <point x="-117" y="992"/>
      <point x="-95" y="739"/>
      <point x="-89" y="703" type="curve"/>
      <point x="-68" y="709" type="line"/>
      <point x="-77" y="783"/>
      <point x="-95" y="1014"/>
      <point x="-258" y="1014" type="curve"/>
      <point x="-295" y="1014"/>
      <point x="-328" y="1000"/>
      <point x="-350" y="974" type="curve"/>
    </contour>
  </outline>
</glyph>
<glyph name="dvKxA" format="1">
  <advance width="683"/>
  <unicode hex="0958"/>
  <outline>
    <contour>
      <point x="341" y="-26" type="move" name="blwm.virama"/>
    </contour>
    <contour>
      <point x="338" y="721" type="move" name="abvm.e"/>
    </contour>
    <contour>
      <point x="387" y="-137" type="move" name="blwm.u"/>
    </contour>
    <component base="dvKA"/>
    <component base="dvAnusvara" xOffset="318" yOffset="-906"/>
  </outline>
</glyph>
<glyph name="dvPHxA" format="1">
  <advance width="672"/>
  <unicode hex="095E"/>
  <outline>
    <contour>
      <point x="363" y="-38" type="move" name="blwm.virama"/>
    </contour>
    <contour>
      <point x="363" y="722" type="move" name="abvm.e"/>
    </contour>
    <contour>
      <point x="422" y="-107" type="move" name="blwm.u"/>
    </contour>
    <component base="dvPHA"/>
    <component base="dvAnusvara" xOffset="277" yOffset="-837"/>
  </outline>
</glyph>
<glyph name="dvmvLL" format="1">
  <advance width="0"/>
  <unicode hex="0963"/>
  <outline>
    <contour>
      <point x="401" y="-1" type="move" name="_blwm.u"/>
    </contour>
    <contour>
      <point x="243" y="-254" type="line"/>
      <point x="176" y="-254"/>
      <point x="151" y="-189"/>
      <point x="151" y="-113" type="curve"/>
      <point x="151" y="-58"/>
      <point x="167" y="-10"/>
      <point x="215" y="-10" type="curve"/>
      <point x="281" y="-10"/>
      <point x="278" y="-85"/>
      <point x="278" y="-161" type="curve"/>
      <point x="299" y="-161" type="line"/>
      <point x="299" y="-72"/>
      <point x="291" y="11"/>
      <point x="215" y="11" type="curve"/>
      <point x="154" y="11"/>
      <point x="126" y="-45"/>
      <point x="126" y="-113" type="curve"/>
      <point x="126" y="-202"/>
      <point x="162" y="-276"/>
      <point x="242" y="-276" type="curve"/>
    </contour>
    <contour>
      <point x="454" y="-140" type="line"/>
      <point x="454" y="-61"/>
      <point x="439" y="11"/>
      <point x="371" y="11" type="curve"/>
      <point x="295" y="11"/>
      <point x="287" y="-72"/>
      <point x="287" y="-161" type="curve"/>
      <point x="307" y="-161" type="line"/>
      <point x="307" y="-85"/>
      <point x="305" y="-10"/>
      <point x="371" y="-10" type="curve"/>
      <point x="428" y="-10"/>
      <point x="429" y="-74"/>
      <point x="429" y="-140" type="curve"/>
    </contour>
    <contour>
      <point x="453" y="-229" type="line"/>
      <point x="417" y="-229"/>
      <point x="383" y="-228"/>
      <point x="383" y="-197" type="curve"/>
      <point x="383" y="-165"/>
      <point x="417" y="-158"/>
      <point x="455" y="-158" type="curve"/>
      <point x="454" y="-136" type="line"/>
      <point x="403" y="-136"/>
      <point x="360" y="-152"/>
      <point x="360" y="-197" type="curve"/>
      <point x="360" y="-239"/>
      <point x="404" y="-250"/>
      <point x="453" y="-250" type="curve"/>
    </contour>
    <contour>
      <point x="453" y="-257" type="curve"/>
      <point x="453" y="-236" type="line"/>
      <point x="404" y="-236"/>
      <point x="361" y="-251"/>
      <point x="361" y="-294" type="curve"/>
      <point x="361" y="-332"/>
      <point x="388" y="-357"/>
      <point x="426" y="-357" type="curve"/>
      <point x="448" y="-357"/>
      <point x="465" y="-352"/>
      <point x="479" y="-335" type="curve"/>
      <point x="467" y="-320" type="line"/>
      <point x="457" y="-333"/>
      <point x="443" y="-336"/>
      <point x="426" y="-336" type="curve"/>
      <point x="401" y="-336"/>
      <point x="384" y="-319"/>
      <point x="384" y="-294" type="curve"/>
      <point x="384" y="-263"/>
      <point x="417" y="-257"/>
    </contour>
  </outline>
</glyph>
<glyph name="dvEight" format="1">
  <advance width="426"/>
  <unicode hex="096E"/>
  <outline>
    <contour>
      <point x="80" y="565" type="curve"/>
      <point x="80" y="471"/>
      <point x="129" y="424"/>
      <point x="206" y="369" type="curve"/>
      <point x="285" y="313"/>
      <point x="335" y="260"/>
      <point x="335" y="168" type="curve"/>
      <point x="335" y="80"/>
      <point x="296" y="18"/>
      <point x="212" y="18" type="curve"/>
      <point x="128" y="18"/>
      <point x="91" y="80"/>
      <point x="91" y="168" type="curve"/>
      <point x="91" y="262"/>
      <point x="142" y="312"/>
      <point x="222" y="369" type="curve"/>
      <point x="296" y="424"/>
      <point x="346" y="471"/>
      <point x="346" y="563" type="curve"/>
      <point x="346" y="661"/>
      <point x="306" y="727"/>
      <point x="212" y="727" type="curve"/>
      <point x="121" y="727"/>
      <point x="80" y="660"/>
      <point x="80" y="565" type="curve"/>
      <point x="104" y="565"/>
      <point x="80" y="565"/>
      <point x="104" y="565" type="curve"/>
      <point x="104" y="644"/>
      <point x="136" y="704"/>
      <point x="211" y="704" type="curve"/>
      <point x="290" y="704"/>
      <point x="322" y="646"/>
      <point x="322" y="563" type="curve"/>
      <point x="322" y="482"/>
      <point x="276" y="436"/>
      <point x="206" y="387" type="curve"/>
      <point x="121" y="325"/>
      <point x="66" y="273"/>
      <point x="66" y="168" type="curve"/>
      <point x="66" y="65"/>
      <point x="112" y="-5"/>
      <point x="211" y="-5" type="curve"/>
      <point x="310" y="-5"/>
      <point x="360" y="63"/>
      <point x="360" y="168" type="curve"/>
      <point x="360" y="272"/>
      <point x="306" y="326"/>
      <point x="222" y="387" type="curve"/>
      <point x="152" y="438"/>
      <point x="104" y="482"/>
      <point x="104" y="565" type="curve"/>
      <point x="80" y="565"/>
      <point x="104" y="565"/>
    </contour>
  </outline>
</glyph>
<glyph name="quotedblbase" format="1">
  <advance width="277"/>
  <unicode hex="201E"/>
  <outline>
    <contour>
      <point x="47" y="-102" type="line"/>
      <point x="71" y="-78"/>
      <point x="90" y="-51"/>
      <point x="90" y="-4" type="curve"/>
      <point x="90" y="16"/>
      <point x="87" y="33"/>
      <point x="69" y="33" type="curve"/>
      <point x="56" y="33"/>
      <point x="49" y="27"/>
      <point x="49" y="15" type="curve"/>
      <point x="49" y="5"/>
      <point x="53" y="-1"/>
      <point x="64" y="-6" type="curve"/>
      <point x="64" y="-27"/>
      <point x="54" y="-62"/>
      <point x="31" y="-85" type="curve"/>
    </contour>
    <contour>
      <point x="143" y="-102" type="line"/>
      <point x="167" y="-78"/>
      <point x="186" y="-51"/>
      <point x="186" y="-4" type="curve"/>
      <point x="186" y="16"/>
      <point x="183" y="33"/>
      <point x="165" y="33" type="curve"/>
      <point x="152" y="33"/>
      <point x="145" y="27"/>
      <point x="145" y="15" type="curve"/>
      <point x="145" y="5"/>
      <point x="149" y="-1"/>
      <point x="160" y="-6" type="curve"/>
      <point x="160" y="-27"/>
      <point x="150" y="-62"/>
      <point x="127" y="-85" type="curve"/>
    </contour>
  </outline>
</glyph>
<glyph name="foursuperior" format="1">
  <advance width="400"/>
  <unicode hex="2074"/>
  <outline>
    <contour>
      <point x="211" y="700" type="move" name="_top"/>
    </contour>
    <contour>
      <point x="212" y="279" type="move" name="_bottom"/>
    </contour>
    <contour>
      <point x="333" y="417" type="line"/>
      <point x="53" y="417" type="line"/>
      <point x="53" y="397" type="line"/>
      <point x="333" y="397" type="line"/>
    </contour>
    <contour>
      <point x="67" y="397" type="line"/>
      <point x="245" y="703" type="line"/>
      <point x="222" y="712" type="line"/>
      <point x="53" y="417" type="line"/>
    </contour>
    <contour>
      <point x="245" y="280" type="line"/>
      <point x="245" y="712" type="line"/>
      <point x="222" y="712" type="line"/>
      <point x="222" y="280" type="line"/>
    </contour>
    <contour>
      <point x="233" y="300" type="line"/>
      <point x="157" y="300" type="line"/>
      <point x="157" y="279" type="line"/>
      <point x="233" y="279" type="line"/>
    </contour>
    <contour>
      <point x="233" y="279" type="line"/>
      <point x="312" y="279" type="line"/>
      <point x="312" y="300" type="line"/>
      <point x="233" y="300" type="line"/>
    </contour>
  </outline>
</glyph>
<glyph name="summation" format="1">
  <advance width="399"/>
  <unicode hex="2211"/>
  <outline>
    <contour>
      <point x="307" y="700" type="line"/>
      <point x="307" y="607" type="line"/>
      <point x="329" y="607" type="line"/>
      <point x="329" y="722" type="line"/>
    </contour>
    <contour>
      <point x="330" y="0" type="line"/>
      <point x="330" y="116" type="line"/>
      <point x="307" y="116" type="line"/>
      <point x="307" y="21" type="line"/>
    </contour>
    <contour>
      <point x="329" y="722" type="line"/>
      <point x="48" y="722" type="line"/>
      <point x="48" y="700" type="line"/>
      <point x="307" y="700" type="line"/>
    </contour>
    <contour>
      <point x="47" y="0" type="line"/>
      <point x="330" y="0" type="line"/>
      <point x="307" y="21" type="line"/>
      <point x="47" y="21" type="line"/>
    </contour>
    <contour>
      <point x="273" y="386" type="line"/>
      <point x="47" y="21" type="line"/>
      <point x="59" y="0" type="line"/>
      <point x="301" y="386" type="line"/>
    </contour>
    <contour>
      <point x="301" y="386" type="line"/>
      <point x="61" y="718" type="line"/>
      <point x="48" y="700" type="line"/>
      <point x="273" y="386" type="line"/>
    </contour>
  </outline>
</glyph>
<glyph name="minus" format="1">
  <advance width="658"/>
  <unicode hex="2212"/>
  <outline>
    <contour>
      <point x="88" y="297" type="line"/>
      <point x="570" y="297" type="line"/>
      <point x="570" y="321" type="line"/>
      <point x="88" y="321" type="line"/>
    </contour>
  </outline>
</glyph>
<glyph name="Tcedilla" format="1">
  <advance width="530"/>
  <outline>
    <contour>
      <point x="48" y="710" type="curve"/>
      <point x="48" y="590"/>
      <point x="48" y="721"/>
      <point x="48" y="601" type="curve"/>
      <point x="70" y="601"/>
      <point x="48" y="601"/>
      <point x="70" y="601" type="curve"/>
      <point x="70" y="721"/>
      <point x="70" y="590"/>
      <point x="70" y="710" type="curve"/>
      <point x="48" y="710"/>
      <point x="70" y="710"/>
    </contour>
    <contour>
      <point x="460" y="710" type="curve"/>
      <point x="460" y="590"/>
      <point x="460" y="721"/>
      <point x="460" y="601" type="curve"/>
      <point x="482" y="601"/>
      <point x="460" y="601"/>
      <point x="482" y="601" type="curve"/>
      <point x="482" y="721"/>
      <point x="482" y="590"/>
      <point x="482" y="710" type="curve"/>
      <point x="460" y="710"/>
      <point x="482" y="710"/>
    </contour>
    <contour>
      <point x="265" y="0" type="curve"/>
      <point x="306" y="0"/>
      <point x="337" y="0"/>
      <point x="377" y="0" type="curve"/>
      <point x="377" y="22"/>
      <point x="377" y="0"/>
      <point x="377" y="22" type="curve"/>
      <point x="256" y="22"/>
      <point x="386" y="22"/>
      <point x="265" y="22" type="curve"/>
      <point x="265" y="0"/>
      <point x="265" y="22"/>
    </contour>
    <contour>
      <point x="265" y="22" type="curve"/>
      <point x="143" y="22"/>
      <point x="274" y="22"/>
      <point x="152" y="22" type="curve"/>
      <point x="152" y="0"/>
      <point x="152" y="22"/>
      <point x="152" y="0" type="curve"/>
      <point x="193" y="0"/>
      <point x="224" y="0"/>
      <point x="265" y="0" type="curve"/>
      <point x="265" y="22"/>
      <point x="265" y="0"/>
    </contour>
    <contour>
      <point x="277" y="0" type="curve"/>
      <point x="277" y="237"/>
      <point x="277" y="473"/>
      <point x="277" y="710" type="curve"/>
      <point x="253" y="710"/>
      <point x="277" y="710"/>
      <point x="253" y="710" type="curve"/>
      <point x="253" y="473"/>
      <point x="253" y="237"/>
      <point x="253" y="0" type="curve"/>
      <point x="277" y="0"/>
      <point x="253" y="0"/>
    </contour>
    <contour>
      <point x="48" y="698" type="curve"/>
      <point x="193" y="698"/>
      <point x="338" y="698"/>
      <point x="482" y="698" type="curve"/>
      <point x="482" y="722"/>
      <point x="482" y="698"/>
      <point x="482" y="722" type="curve"/>
      <point x="338" y="722"/>
      <point x="193" y="722"/>
      <point x="48" y="722" type="curve"/>
      <point x="48" y="698"/>
      <point x="48" y="722"/>
    </contour>
    <contour>
      <point x="259" y="15" type="curve"/>
      <point x="248" y="-12"/>
      <point x="238" y="-39"/>
      <point x="228" y="-65" type="curve"/>
      <point x="245" y="-83"/>
      <point x="228" y="-65"/>
      <point x="245" y="-83" type="curve"/>
      <point x="255" y="-55"/>
      <point x="267" y="-27"/>
      <point x="277" y="0" type="curve"/>
      <point x="259" y="15"/>
      <point x="277" y="0"/>
    </contour>
    <contour>
      <point x="245" y="-83" type="curve"/>
      <point x="254" y="-74"/>
      <point x="261" y="-70"/>
      <point x="274" y="-70" type="curve"/>
      <point x="301" y="-70"/>
      <point x="307" y="-96"/>
      <point x="307" y="-127" type="curve"/>
      <point x="307" y="-159"/>
      <point x="294" y="-182"/>
      <point x="265" y="-182" type="curve"/>
      <point x="246" y="-182"/>
      <point x="232" y="-178"/>
      <point x="218" y="-165" type="curve"/>
      <point x="208" y="-182"/>
      <point x="218" y="-165"/>
      <point x="208" y="-182" type="curve"/>
      <point x="225" y="-197"/>
      <point x="241" y="-204"/>
      <point x="264" y="-204" type="curve"/>
      <point x="308" y="-204"/>
      <point x="332" y="-172"/>
      <point x="332" y="-127" type="curve"/>
      <point x="332" y="-83"/>
      <point x="315" y="-48"/>
      <point x="276" y="-48" type="curve"/>
      <point x="257" y="-48"/>
      <point x="244" y="-54"/>
      <point x="228" y="-65" type="curve"/>
      <point x="245" y="-83"/>
      <point x="228" y="-65"/>
    </contour>
  </outline>
</glyph>
<glyph name="dvBH" format="1">
  <advance width="365"/>
  <outline>
    <contour>
      <point x="115" y="537" type="line"/>
      <point x="121" y="627"/>
      <point x="136" y="706"/>
      <point x="215" y="706" type="curve"/>
      <point x="289" y="706"/>
      <point x="308" y="632"/>
      <point x="308" y="547" type="curve"/>
      <point x="308" y="458"/>
      <point x="308" y="392"/>
      <point x="308" y="302" type="curve"/>
      <point x="308" y="210"/>
      <point x="284" y="129"/>
      <point x="208" y="129" type="curve"/>
      <point x="131" y="129"/>
      <point x="95" y="197"/>
      <point x="95" y="283" type="curve"/>
      <point x="95" y="362"/>
      <point x="148" y="416"/>
      <point x="235" y="416" type="curve"/>
      <point x="318" y="416"/>
      <point x="380" y="416"/>
      <point x="463" y="416" type="curve"/>
      <point x="463" y="424"/>
      <point x="463" y="430"/>
      <point x="463" y="438" type="curve"/>
      <point x="380" y="438"/>
      <point x="319" y="438"/>
      <point x="236" y="438" type="curve"/>
      <point x="134" y="438"/>
      <point x="70" y="375"/>
      <point x="70" y="282" type="curve"/>
      <point x="70" y="184"/>
      <point x="116" y="108"/>
      <point x="207" y="108" type="curve"/>
      <point x="302" y="108"/>
      <point x="332" y="197"/>
      <point x="332" y="302" type="curve"/>
      <point x="332" y="392"/>
      <point x="332" y="458"/>
      <point x="332" y="547" type="curve"/>
      <point x="332" y="645"/>
      <point x="303" y="728"/>
      <point x="216" y="728" type="curve"/>
      <point x="125" y="728"/>
      <point x="100" y="649"/>
      <point x="93" y="540" type="curve"/>
    </contour>
  </outline>
</glyph>
<glyph name="dvB_base" format="1">
  <advance width="300"/>
  <outline>
    <contour>
      <point x="374" y="344" type="curve"/>
      <point x="374" y="227"/>
      <point x="334" y="132"/>
      <point x="229" y="132" type="curve"/>
      <point x="123" y="132"/>
      <point x="81" y="227"/>
      <point x="81" y="345" type="curve"/>
      <point x="81" y="458"/>
      <point x="122" y="548"/>
      <point x="224" y="548" type="curve"/>
      <point x="328" y="548"/>
      <point x="374" y="459"/>
      <point x="374" y="344" type="curve"/>
      <point x="383" y="344"/>
      <point x="389" y="344"/>
      <point x="398" y="344" type="curve"/>
      <point x="398" y="472"/>
      <point x="342" y="569"/>
      <point x="225" y="569" type="curve"/>
      <point x="110" y="569"/>
      <point x="57" y="471"/>
      <point x="57" y="345" type="curve"/>
      <point x="57" y="213"/>
      <point x="108" y="110"/>
      <point x="227" y="110" type="curve"/>
      <point x="346" y="110"/>
      <point x="398" y="213"/>
      <point x="398" y="344" type="curve"/>
      <point x="389" y="344"/>
      <point x="383" y="344"/>
    </contour>
    <contour>
      <point x="353" y="188" type="line"/>
      <point x="125" y="505" type="line"/>
      <point x="104" y="495" type="line"/>
      <point x="336" y="175" type="line"/>
    </contour>
  </outline>
</glyph>
<glyph name="dvB_open" format="1">
  <advance width="500"/>
  <outline>
    <contour>
      <point x="353" y="188" type="line"/>
      <point x="125" y="500" type="line"/>
      <point x="104" y="490" type="line"/>
      <point x="336" y="175" type="line"/>
    </contour>
    <contour>
      <point x="255" y="569" type="line"/>
      <point x="119" y="569"/>
      <point x="57" y="471"/>
      <point x="57" y="345" type="curve"/>
      <point x="57" y="213"/>
      <point x="108" y="110"/>
      <point x="227" y="110" type="curve"/>
      <point x="345" y="110"/>
      <point x="383" y="194"/>
      <point x="396" y="302" type="curve"/>
      <point x="389" y="302"/>
      <point x="385" y="302"/>
      <point x="378" y="302" type="curve"/>
      <point x="365" y="209"/>
      <point x="337" y="132"/>
      <point x="229" y="132" type="curve"/>
      <point x="123" y="132"/>
      <point x="81" y="227"/>
      <point x="81" y="345" type="curve"/>
      <point x="81" y="458"/>
      <point x="131" y="548"/>
      <point x="254" y="548" type="curve"/>
    </contour>
  </outline>
</glyph>
<glyph name="dvCH_RA" format="1">
  <advance width="572"/>
  <outline>
    <contour>
      <point x="334" y="-134" type="move" name="blwm.virama"/>
    </contour>
    <contour>
      <point x="426" y="719" type="move" name="abvm.e"/>
    </contour>
    <contour>
      <point x="373" y="-205" type="move" name="blwm.u"/>
    </contour>
    <component base="dvCHA"/>
    <component base="dvDoublevirama" xOffset="45" yOffset="117"/>
  </outline>
</glyph>
<glyph name="dvDDH_DDHA" format="1">
  <advance width="436"/>
  <outline>
    <contour>
      <point x="229" y="-344" type="move" name="blwm.virama"/>
    </contour>
    <contour>
      <point x="285" y="723" type="move" name="abvm.e"/>
    </contour>
    <contour>
      <point x="292" y="-416" type="move" name="blwm.u"/>
    </contour>
    <component base="dvDDHA_short" xOffset="-3" yOffset="-440"/>
    <component base="dvTopbar" xScale="0.69437758188" xOffset="-14"/>
    <component base="dvDDHA_open" xOffset="-3"/>
    <component base="dvStem_short" yScale="0.654665403621" xOffset="-25" yOffset="244"/>
  </outline>
</glyph>
<glyph name="dvDD_low" format="1">
  <advance width="500"/>
  <outline>
    <contour>
      <point x="152" y="-13" type="curve"/>
      <point x="189" y="23"/>
      <point x="225" y="44"/>
      <point x="275" y="44" type="curve"/>
      <point x="340" y="44"/>
      <point x="382" y="-4"/>
      <point x="381" y="-71" type="curve"/>
      <point x="381" y="-150"/>
      <point x="328" y="-205"/>
      <point x="249" y="-205" type="curve"/>
      <point x="173" y="-205"/>
      <point x="131" y="-148"/>
      <point x="102" y="-75" type="curve"/>
      <point x="82" y="-88" type="line"/>
      <point x="112" y="-170"/>
      <point x="164" y="-228"/>
      <point x="249" y="-228" type="curve"/>
      <point x="342" y="-228"/>
      <point x="406" y="-164"/>
      <point x="406" y="-71" type="curve"/>
      <point x="405" y="9"/>
      <point x="355" y="66"/>
      <point x="277" y="66" type="curve"/>
      <point x="228" y="67"/>
      <point x="190" y="50"/>
      <point x="154" y="17" type="curve"/>
      <point x="154" y="6"/>
      <point x="153" y="-1"/>
    </contour>
    <contour>
      <point x="245" y="224" type="line"/>
      <point x="161" y="224"/>
      <point x="92" y="187"/>
      <point x="92" y="110" type="curve"/>
      <point x="93" y="59"/>
      <point x="115" y="22"/>
      <point x="152" y="-13" type="curve"/>
      <point x="153" y="-2"/>
      <point x="154" y="6"/>
      <point x="154" y="17" type="curve"/>
      <point x="128" y="44"/>
      <point x="117" y="73"/>
      <point x="117" y="110" type="curve"/>
      <point x="117" y="173"/>
      <point x="175" y="203"/>
      <point x="245" y="203" type="curve"/>
    </contour>
  </outline>
</glyph>
<glyph name="dvDH_close" format="1">
  <advance width="500"/>
  <outline>
    <contour>
      <point x="368" y="288" type="curve"/>
      <point x="348" y="207"/>
      <point x="311" y="140"/>
      <point x="232" y="140" type="curve"/>
      <point x="154" y="140"/>
      <point x="103" y="198"/>
      <point x="104" y="278" type="curve"/>
      <point x="104" y="359"/>
      <point x="156" y="417"/>
      <point x="235" y="417" type="curve"/>
      <point x="235" y="423"/>
      <point x="235" y="429"/>
      <point x="235" y="435" type="curve"/>
      <point x="142" y="435"/>
      <point x="79" y="370"/>
      <point x="79" y="277" type="curve"/>
      <point x="79" y="185"/>
      <point x="139" y="119"/>
      <point x="230" y="119" type="curve"/>
      <point x="318" y="119"/>
      <point x="365" y="189"/>
      <point x="386" y="279" type="curve"/>
      <point x="379" y="282"/>
      <point x="375" y="285"/>
    </contour>
    <contour>
      <point x="365" y="640" type="line"/>
      <point x="335" y="686"/>
      <point x="282" y="717"/>
      <point x="217" y="717" type="curve"/>
      <point x="132" y="717"/>
      <point x="74" y="659"/>
      <point x="74" y="575" type="curve"/>
      <point x="74" y="481"/>
      <point x="140" y="417"/>
      <point x="235" y="417" type="curve"/>
      <point x="235" y="423"/>
      <point x="235" y="429"/>
      <point x="235" y="435" type="curve"/>
      <point x="152" y="435"/>
      <point x="97" y="494"/>
      <point x="98" y="577" type="curve"/>
      <point x="99" y="647"/>
      <point x="146" y="695"/>
      <point x="215" y="695" type="curve"/>
      <point x="271" y="695"/>
      <point x="318" y="672"/>
      <point x="346" y="635" type="curve"/>
    </contour>
  </outline>
</glyph>
<glyph name="dvDH_open" format="1">
  <advance width="500"/>
  <outline>
    <contour>
      <point x="372" y="283" type="curve"/>
      <point x="351" y="199"/>
      <point x="309" y="133"/>
      <point x="232" y="133" type="curve"/>
      <point x="148" y="133"/>
      <point x="93" y="184"/>
      <point x="94" y="261" type="curve"/>
      <point x="94" y="358"/>
      <point x="155" y="417"/>
      <point x="241" y="417" type="curve"/>
      <point x="241" y="424"/>
      <point x="241" y="428"/>
      <point x="241" y="435" type="curve"/>
      <point x="141" y="435"/>
      <point x="69" y="370"/>
      <point x="69" y="260" type="curve"/>
      <point x="69" y="170"/>
      <point x="133" y="112"/>
      <point x="230" y="112" type="curve"/>
      <point x="321" y="112"/>
      <point x="368" y="181"/>
      <point x="390" y="274" type="curve"/>
      <point x="383" y="277"/>
      <point x="379" y="280"/>
    </contour>
    <contour>
      <point x="220" y="731" type="line"/>
      <point x="115" y="731"/>
      <point x="64" y="663"/>
      <point x="64" y="575" type="curve"/>
      <point x="64" y="467"/>
      <point x="142" y="417"/>
      <point x="241" y="417" type="curve"/>
      <point x="241" y="424"/>
      <point x="241" y="428"/>
      <point x="241" y="435" type="curve"/>
      <point x="154" y="435"/>
      <point x="87" y="481"/>
      <point x="88" y="577" type="curve"/>
      <point x="89" y="650"/>
      <point x="128" y="709"/>
      <point x="220" y="709" type="curve"/>
    </contour>
  </outline>
</glyph>
<glyph name="dvD_DHA" format="1">
  <advance width="628"/>
  <outline>
    <contour>
      <point x="554" y="-1" type="move" name="blwm.virama"/>
    </contour>
    <contour>
      <point x="525" y="720" type="move" name="abvm.e"/>
    </contour>
    <contour>
      <point x="554" y="8" type="move" name="blwm.u"/>
    </contour>
    <component base="dvDH_open" xOffset="-29" yOffset="-136"/>
    <component base="dvTopbar" xScale="0.776892865317" xOffset="-2"/>
    <component base="dvDA" xOffset="206"/>
  </outline>
</glyph>
<glyph name="dvD_RA" format="1">
  <advance width="414"/>
  <outline>
    <contour>
      <point x="350" y="-3" type="move" name="blwm.virama"/>
    </contour>
    <contour>
      <point x="316" y="718" type="move" name="abvm.e"/>
    </contour>
    <contour>
      <point x="350" y="-84" type="move" name="blwm.u"/>
    </contour>
    <component base="dvDA"/>
    <component base="dvRaker" xOffset="30" yOffset="-58"/>
  </outline>
</glyph>
<glyph name="dvD_VA" format="1">
  <advance width="422"/>
  <outline>
    <contour>
      <point x="341" y="-184" type="move" name="blwm.virama"/>
    </contour>
    <contour>
      <point x="309" y="723" type="move" name="abvm.e"/>
    </contour>
    <contour>
      <point x="341" y="-161" type="move" name="blwm.u"/>
    </contour>
    <component base="dvDA_short" xOffset="-11" yOffset="36"/>
    <component base="dvStroke_down" yScale="1.94729391796" xOffset="-11" yOffset="-183"/>
    <component base="dvVA_open" xOffset="-67" yOffset="-281"/>
    <component base="dvTopbar" xScale="0.670426050644" xOffset="-2"/>
  </outline>
</glyph>
<glyph name="dvD_YA" format="1">
  <advance width="496"/>
  <outline>
    <contour>
      <point x="363" y="178" type="curve"/>
      <point x="336" y="120"/>
      <point x="287" y="61"/>
      <point x="216" y="61" type="curve"/>
      <point x="128" y="61"/>
      <point x="70" y="114"/>
      <point x="70" y="197" type="curve"/>
      <point x="70" y="269"/>
      <point x="110" y="321"/>
      <point x="178" y="321" type="curve"/>
      <point x="197" y="321"/>
      <point x="217" y="321"/>
      <point x="237" y="321" type="curve"/>
      <point x="237" y="343"/>
      <point x="237" y="321"/>
      <point x="237" y="343" type="curve"/>
      <point x="217" y="343"/>
      <point x="197" y="343"/>
      <point x="178" y="343" type="curve"/>
      <point x="95" y="343"/>
      <point x="45" y="281"/>
      <point x="45" y="195" type="curve"/>
      <point x="45" y="100"/>
      <point x="114" y="40"/>
      <point x="215" y="40" type="curve"/>
      <point x="295" y="40"/>
      <point x="351" y="97"/>
      <point x="382" y="166" type="curve"/>
      <point x="363" y="178"/>
      <point x="382" y="166"/>
    </contour>
    <contour>
      <point x="237" y="343" type="curve"/>
      <point x="217" y="343"/>
      <point x="197" y="343"/>
      <point x="178" y="343" type="curve"/>
      <point x="112" y="343"/>
      <point x="70" y="388"/>
      <point x="70" y="454" type="curve"/>
      <point x="70" y="509"/>
      <point x="100" y="550"/>
      <point x="152" y="550" type="curve"/>
      <point x="185" y="550"/>
      <point x="217" y="550"/>
      <point x="250" y="550" type="curve"/>
      <point x="226" y="571"/>
      <point x="250" y="550"/>
      <point x="226" y="571" type="curve"/>
      <point x="201" y="571"/>
      <point x="176" y="571"/>
      <point x="151" y="571" type="curve"/>
      <point x="86" y="571"/>
      <point x="46" y="522"/>
      <point x="46" y="454" type="curve"/>
      <point x="46" y="374"/>
      <point x="99" y="321"/>
      <point x="178" y="321" type="curve"/>
      <point x="197" y="321"/>
      <point x="217" y="321"/>
      <point x="237" y="321" type="curve"/>
      <point x="237" y="343"/>
      <point x="237" y="321"/>
    </contour>
    <contour>
      <point x="226" y="714" type="curve"/>
      <point x="226" y="667"/>
      <point x="226" y="619"/>
      <point x="226" y="571" type="curve"/>
      <point x="250" y="550"/>
      <point x="226" y="571"/>
      <point x="250" y="550" type="curve"/>
      <point x="250" y="605"/>
      <point x="250" y="659"/>
      <point x="250" y="714" type="curve"/>
      <point x="226" y="714"/>
      <point x="250" y="714"/>
    </contour>
    <component base="dvTopbar" xScale="0.664373427446" xOffset="-15"/>
    <component base="dvStemright" xOffset="273"/>
  </outline>
</glyph>
<glyph name="dvGH_base" format="1">
  <advance width="500"/>
  <outline>
    <contour>
      <point x="354" y="252" type="curve"/>
      <point x="321" y="186"/>
      <point x="275" y="138"/>
      <point x="210" y="138" type="curve"/>
      <point x="129" y="138"/>
      <point x="75" y="198"/>
      <point x="75" y="281" type="curve"/>
      <point x="75" y="367"/>
      <point x="144" y="420"/>
      <point x="234" y="420" type="curve"/>
      <point x="234" y="426"/>
      <point x="234" y="432"/>
      <point x="234" y="438" type="curve"/>
      <point x="131" y="438"/>
      <point x="51" y="378"/>
      <point x="51" y="280" type="curve"/>
      <point x="51" y="185"/>
      <point x="115" y="117"/>
      <point x="209" y="117" type="curve"/>
      <point x="280" y="117"/>
      <point x="332" y="164"/>
      <point x="368" y="236" type="curve"/>
      <point x="363" y="242"/>
      <point x="359" y="246"/>
    </contour>
    <contour>
      <point x="167" y="718" type="curve"/>
      <point x="100" y="698"/>
      <point x="65" y="643"/>
      <point x="65" y="573" type="curve"/>
      <point x="65" y="481"/>
      <point x="138" y="423"/>
      <point x="234" y="423" type="curve"/>
      <point x="234" y="430"/>
      <point x="234" y="435"/>
      <point x="234" y="442" type="curve"/>
      <point x="151" y="442"/>
      <point x="90" y="494"/>
      <point x="89" y="575" type="curve"/>
      <point x="89" y="637"/>
      <point x="124" y="683"/>
      <point x="183" y="704" type="curve"/>
      <point x="177" y="709"/>
      <point x="173" y="713"/>
    </contour>
  </outline>
</glyph>
<glyph name="dvG_DA" format="1">
  <advance width="693"/>
  <outline>
    <contour>
      <point x="626" y="-4" type="move" name="blwm.virama"/>
    </contour>
    <contour>
      <point x="590" y="719" type="move" name="abvm.e"/>
    </contour>
    <contour>
      <point x="626" y="-85" type="move" name="blwm.u"/>
    </contour>
    <component base="dvG"/>
    <component base="dvDA" xOffset="271"/>
  </outline>
</glyph>
<glyph name="dvG_LA" format="1">
  <advance width="919"/>
  <outline>
    <contour>
      <point x="807" y="-5" type="move" name="blwm.virama"/>
    </contour>
    <contour>
      <point x="720" y="721" type="move" name="abvm.e"/>
    </contour>
    <contour>
      <point x="796" y="-78" type="move" name="blwm.u"/>
    </contour>
    <component base="dvG"/>
    <component base="dvLA" xOffset="274"/>
  </outline>
</glyph>
<glyph name="dvJH_base" format="1">
  <advance width="500"/>
  <outline>
    <contour>
      <point x="323" y="533" type="curve"/>
      <point x="323" y="599"/>
      <point x="323" y="645"/>
      <point x="323" y="711" type="curve"/>
      <point x="314" y="711"/>
      <point x="308" y="711"/>
      <point x="299" y="711" type="curve"/>
      <point x="299" y="653"/>
      <point x="299" y="612"/>
      <point x="299" y="554" type="curve"/>
      <point x="308" y="546"/>
      <point x="314" y="541"/>
    </contour>
    <contour>
      <point x="299" y="554" type="curve"/>
      <point x="260" y="554"/>
      <point x="234" y="553"/>
      <point x="195" y="553" type="curve"/>
      <point x="103" y="553"/>
      <point x="42" y="504"/>
      <point x="42" y="419" type="curve"/>
      <point x="43" y="357"/>
      <point x="60" y="315"/>
      <point x="102" y="276" type="curve"/>
      <point x="103" y="286"/>
      <point x="104" y="293"/>
      <point x="104" y="306" type="curve"/>
      <point x="76" y="335"/>
      <point x="67" y="371"/>
      <point x="67" y="419" type="curve"/>
      <point x="67" y="489"/>
      <point x="117" y="532"/>
      <point x="195" y="532" type="curve"/>
      <point x="243" y="532"/>
      <point x="275" y="533"/>
      <point x="323" y="533" type="curve"/>
      <point x="314" y="541"/>
      <point x="308" y="546"/>
    </contour>
    <contour>
      <point x="60" y="124" type="line"/>
      <point x="94" y="66"/>
      <point x="129" y="11"/>
      <point x="225" y="11" type="curve"/>
      <point x="322" y="11"/>
      <point x="366" y="91"/>
      <point x="366" y="198" type="curve"/>
      <point x="365" y="290"/>
      <point x="322" y="355"/>
      <point x="237" y="355" type="curve"/>
      <point x="185" y="356"/>
      <point x="145" y="340"/>
      <point x="104" y="306" type="curve"/>
      <point x="104" y="293"/>
      <point x="103" y="286"/>
      <point x="102" y="276" type="curve"/>
      <point x="144" y="316"/>
      <point x="182" y="333"/>
      <point x="235" y="333" type="curve"/>
      <point x="306" y="333"/>
      <point x="342" y="277"/>
      <point x="341" y="198" type="curve"/>
      <point x="341" y="105"/>
      <point x="308" y="34"/>
      <point x="225" y="34" type="curve"/>
      <point x="138" y="34"/>
      <point x="108" y="83"/>
      <point x="79" y="133" type="curve"/>
    </contour>
  </outline>
</glyph>
<glyph name="dvJ_DDA" format="1">
  <advance width="771"/>
  <outline>
    <contour>
      <point x="668" y="-16" type="move" name="blwm.virama"/>
    </contour>
    <contour>
      <point x="697" y="720" type="move" name="abvm.e"/>
    </contour>
    <contour>
      <point x="687" y="-104" type="move" name="blwm.u"/>
    </contour>
    <component base="dvI_base" xOffset="374"/>
    <component base="dvTopbar" xScale="1.18535679513" xOffset="-11"/>
    <component base="dvJ_base" xOffset="-27"/>
  </outline>
</glyph>
<glyph name="dvJ_J_YA" format="1">
  <advance width="1293"/>
  <outline>
    <contour>
      <point x="51" y="486" type="line"/>
      <point x="62" y="314"/>
      <point x="57" y="118"/>
      <point x="210" y="118" type="curve"/>
      <point x="299" y="118"/>
      <point x="349" y="207"/>
      <point x="349" y="304" type="curve"/>
      <point x="349" y="405"/>
      <point x="313" y="504"/>
      <point x="225" y="504" type="curve"/>
      <point x="225" y="497"/>
      <point x="225" y="489"/>
      <point x="225" y="482" type="curve"/>
      <point x="302" y="482"/>
      <point x="325" y="391"/>
      <point x="325" y="302" type="curve"/>
      <point x="325" y="218"/>
      <point x="282" y="139"/>
      <point x="211" y="139" type="curve"/>
      <point x="73" y="139"/>
      <point x="85" y="330"/>
      <point x="71" y="491" type="curve"/>
    </contour>
    <contour>
      <point x="434" y="486" type="line"/>
      <point x="445" y="314"/>
      <point x="440" y="118"/>
      <point x="593" y="118" type="curve"/>
      <point x="682" y="118"/>
      <point x="732" y="207"/>
      <point x="732" y="304" type="curve"/>
      <point x="732" y="405"/>
      <point x="696" y="504"/>
      <point x="608" y="504" type="curve"/>
      <point x="608" y="497"/>
      <point x="608" y="489"/>
      <point x="608" y="482" type="curve"/>
      <point x="685" y="482"/>
      <point x="708" y="391"/>
      <point x="708" y="302" type="curve"/>
      <point x="708" y="218"/>
      <point x="665" y="139"/>
      <point x="594" y="139" type="curve"/>
      <point x="456" y="139"/>
      <point x="468" y="330"/>
      <point x="454" y="491" type="curve"/>
    </contour>
    <contour>
      <point x="843" y="483" type="curve"/>
      <point x="918" y="492"/>
      <point x="972" y="532"/>
      <point x="972" y="602" type="curve"/>
      <point x="972" y="650"/>
      <point x="949" y="681"/>
      <point x="922" y="719" type="curve"/>
      <point x="916" y="714"/>
      <point x="910" y="710"/>
      <point x="904" y="705" type="curve"/>
      <point x="930" y="671"/>
      <point x="948" y="642"/>
      <point x="948" y="599" type="curve"/>
      <point x="948" y="540"/>
      <point x="891" y="504"/>
      <point x="819" y="504" type="curve"/>
      <point x="828" y="496"/>
      <point x="834" y="491"/>
    </contour>
    <contour>
      <point x="819" y="504" type="curve"/>
      <point x="819" y="305"/>
      <point x="853" y="130"/>
      <point x="990" y="130" type="curve"/>
      <point x="1090" y="130"/>
      <point x="1148" y="199"/>
      <point x="1178" y="304" type="curve"/>
      <point x="1174" y="309"/>
      <point x="1170" y="313"/>
      <point x="1166" y="318" type="curve"/>
      <point x="1135" y="221"/>
      <point x="1080" y="151"/>
      <point x="990" y="151" type="curve"/>
      <point x="877" y="151"/>
      <point x="843" y="306"/>
      <point x="843" y="483" type="curve"/>
      <point x="834" y="491"/>
      <point x="828" y="496"/>
    </contour>
    <contour>
      <point x="455" y="504" type="curve"/>
      <point x="379" y="504"/>
      <point x="302" y="504"/>
      <point x="225" y="504" type="curve"/>
      <point x="225" y="482"/>
      <point x="225" y="504"/>
      <point x="225" y="482" type="curve"/>
      <point x="302" y="482"/>
      <point x="379" y="482"/>
      <point x="455" y="482" type="curve"/>
      <point x="455" y="504"/>
      <point x="455" y="482"/>
    </contour>
    <contour>
      <point x="838" y="504" type="curve"/>
      <point x="762" y="504"/>
      <point x="685" y="504"/>
      <point x="608" y="504" type="curve"/>
      <point x="608" y="482"/>
      <point x="608" y="504"/>
      <point x="608" y="482" type="curve"/>
      <point x="685" y="482"/>
      <point x="762" y="482"/>
      <point x="838" y="482" type="curve"/>
      <point x="838" y="504"/>
      <point x="838" y="482"/>
    </contour>
    <contour>
      <point x="1179" y="0" type="curve"/>
      <point x="1179" y="241"/>
      <point x="1179" y="481"/>
      <point x="1179" y="722" type="curve"/>
      <point x="1155" y="722"/>
      <point x="1179" y="722"/>
      <point x="1155" y="722" type="curve"/>
      <point x="1155" y="481"/>
      <point x="1155" y="241"/>
      <point x="1155" y="0" type="curve"/>
      <point x="1179" y="0"/>
      <point x="1155" y="0"/>
    </contour>
    <contour>
      <point x="1168" y="0" type="curve"/>
      <point x="1207" y="0"/>
      <point x="1226" y="0"/>
      <point x="1266" y="0" type="curve"/>
      <point x="1266" y="22"/>
      <point x="1266" y="0"/>
      <point x="1266" y="22" type="curve"/>
      <point x="1148" y="22"/>
      <point x="1286" y="22"/>
      <point x="1168" y="22" type="curve"/>
      <point x="1168" y="0"/>
      <point x="1168" y="22"/>
    </contour>
    <contour>
      <point x="1159" y="700" type="curve"/>
      <point x="1214" y="700"/>
      <point x="1258" y="700"/>
      <point x="1313" y="700" type="curve"/>
      <point x="1313" y="722"/>
      <point x="1313" y="700"/>
      <point x="1313" y="722" type="curve"/>
      <point x="1258" y="722"/>
      <point x="1214" y="722"/>
      <point x="1159" y="722" type="curve"/>
      <point x="1159" y="700"/>
      <point x="1159" y="722"/>
    </contour>
    <contour>
      <point x="-20" y="700" type="line"/>
      <point x="462" y="700" type="line"/>
      <point x="462" y="722" type="line"/>
      <point x="-20" y="722" type="line"/>
    </contour>
    <contour>
      <point x="423" y="700" type="line"/>
      <point x="885" y="700" type="line"/>
      <point x="885" y="722" type="line"/>
      <point x="423" y="722" type="line"/>
    </contour>
    <contour>
      <point x="747" y="700" type="line"/>
      <point x="1252" y="700" type="line"/>
      <point x="1252" y="722" type="line"/>
      <point x="747" y="722" type="line"/>
    </contour>
  </outline>
</glyph>
<glyph name="dvK_PHA" format="1">
  <advance width="1208"/>
  <outline>
    <contour>
      <point x="865" y="0" type="move" name="blwm.virama"/>
    </contour>
    <contour>
      <point x="865" y="721" type="move" name="abvm.e"/>
    </contour>
    <contour>
      <point x="865" y="0" type="move" name="blwm.u"/>
    </contour>
    <component base="dvTopbar" xOffset="551"/>
    <component base="dvKA_right" xOffset="504" yOffset="-20"/>
    <component base="dvK" xOffset="-18"/>
    <component base="dvPA" xOffset="500"/>
  </outline>
</glyph>
<glyph name="dvK_SS" format="1">
  <advance width="370"/>
  <outline>
    <contour>
      <point x="291" y="194" type="line"/>
      <point x="291" y="121"/>
      <point x="257" y="66"/>
      <point x="189" y="66" type="curve"/>
      <point x="119" y="66"/>
      <point x="86" y="126"/>
      <point x="86" y="203" type="curve"/>
      <point x="86" y="287"/>
      <point x="134" y="337"/>
      <point x="204" y="386" type="curve"/>
      <point x="275" y="433"/>
      <point x="317" y="489"/>
      <point x="318" y="574" type="curve"/>
      <point x="318" y="659"/>
      <point x="285" y="727"/>
      <point x="208" y="727" type="curve"/>
      <point x="130" y="727"/>
      <point x="96" y="660"/>
      <point x="96" y="574" type="curve"/>
      <point x="96" y="492"/>
      <point x="114" y="429"/>
      <point x="180" y="382" type="curve"/>
      <point x="197" y="397" type="line"/>
      <point x="135" y="439"/>
      <point x="120" y="499"/>
      <point x="120" y="574" type="curve"/>
      <point x="120" y="646"/>
      <point x="143" y="705"/>
      <point x="207" y="705" type="curve"/>
      <point x="271" y="705"/>
      <point x="294" y="646"/>
      <point x="294" y="574" type="curve"/>
      <point x="294" y="498"/>
      <point x="259" y="446"/>
      <point x="194" y="405" type="curve"/>
      <point x="116" y="351"/>
      <point x="61" y="297"/>
      <point x="61" y="203" type="curve"/>
      <point x="61" y="113"/>
      <point x="103" y="44"/>
      <point x="187" y="44" type="curve"/>
      <point x="267" y="44"/>
      <point x="311" y="105"/>
      <point x="311" y="189" type="curve"/>
    </contour>
    <component base="dvStroke_down" yScale="0.827145708832" xOffset="-41" yOffset="-53"/>
  </outline>
</glyph>
<glyph name="dvK_right" format="1">
  <advance width="500"/>
  <outline>
    <contour>
      <point x="603" y="356" type="line"/>
      <point x="603" y="456"/>
      <point x="569" y="546"/>
      <point x="473" y="546" type="curve"/>
      <point x="396" y="546"/>
      <point x="354" y="483"/>
      <point x="340" y="404" type="curve"/>
      <point x="346" y="403"/>
      <point x="351" y="401"/>
      <point x="357" y="400" type="curve"/>
      <point x="371" y="469"/>
      <point x="412" y="525"/>
      <point x="473" y="525" type="curve"/>
      <point x="556" y="525"/>
      <point x="578" y="445"/>
      <point x="578" y="356" type="curve"/>
    </contour>
  </outline>
</glyph>
<glyph name="dvKx_KxA" format="1">
  <advance width="1203"/>
  <outline>
    <contour>
      <point x="859" y="0" type="move" name="blwm.virama"/>
    </contour>
    <contour>
      <point x="859" y="722" type="move" name="abvm.e"/>
    </contour>
    <contour>
      <point x="859" y="0" type="move" name="blwm.u"/>
    </contour>
    <component base="dvKA" xOffset="520"/>
    <component base="dvAnusvara" xOffset="318" yOffset="-908"/>
    <component base="dvAnusvara" xOffset="833" yOffset="-908"/>
    <component base="dvK" xOffset="-18"/>
  </outline>
</glyph>
<glyph name="dvL_DA" format="1">
  <advance width="885"/>
  <outline>
    <contour>
      <point x="813" y="-47" type="move" name="blwm.virama"/>
    </contour>
    <contour>
      <point x="783" y="722" type="move" name="abvm.e"/>
    </contour>
    <contour>
      <point x="813" y="-128" type="move" name="blwm.u"/>
    </contour>
    <component base="dvTopbar" xScale="1.16240655408" xOffset="-11"/>
    <component base="dvLA_open" xOffset="44"/>
    <component base="dvDA" xOffset="463"/>
  </outline>
</glyph>
<glyph name="dvL_HA" format="1">
  <advance width="885"/>
  <outline>
    <contour>
      <point x="716" y="-139" type="move" name="blwm.virama"/>
    </contour>
    <contour>
      <point x="773" y="718" type="move" name="abvm.e"/>
    </contour>
    <contour>
      <point x="768" y="-221" type="move" name="blwm.u"/>
    </contour>
    <component base="dvTopbar" xScale="1.27613829878" xOffset="-10"/>
    <component base="dvLA_open" xOffset="75" yOffset="-11"/>
    <component base="dvHA" xOffset="454"/>
  </outline>
</glyph>
<glyph name="dvL_LA" format="1">
  <advance width="1079"/>
  <outline>
    <contour>
      <point x="945" y="11" type="move" name="blwm.virama"/>
    </contour>
    <contour>
      <point x="880" y="718" type="move" name="abvm.e"/>
    </contour>
    <contour>
      <point x="934" y="-62" type="move" name="blwm.u"/>
    </contour>
    <component base="dvTopbar" xScale="1.27613829878" xOffset="-10"/>
    <component base="dvLA_open" xOffset="64" yOffset="-11"/>
    <component base="dvLA" xOffset="434"/>
  </outline>
</glyph>
<glyph name="dvL_TTA" format="1">
  <advance width="897"/>
  <outline>
    <contour>
      <point x="758" y="-15" type="move" name="blwm.virama"/>
    </contour>
    <contour>
      <point x="729" y="719" type="move" name="abvm.e"/>
    </contour>
    <contour>
      <point x="790" y="-101" type="move" name="blwm.u"/>
    </contour>
    <component base="dvTopbar" xScale="0.900240798778" xOffset="-13"/>
    <component base="dvLA_open" xOffset="40" yOffset="-11"/>
    <component base="dvTTA" xOffset="454"/>
  </outline>
</glyph>
<glyph name="dvM_LA" format="1">
  <advance width="933"/>
  <outline>
    <contour>
      <point x="766" y="35" type="move" name="blwm.virama"/>
    </contour>
    <contour>
      <point x="731" y="720" type="move" name="abvm.e"/>
    </contour>
    <contour>
      <point x="755" y="-38" type="move" name="blwm.u"/>
    </contour>
    <component base="dvM"/>
    <component base="dvLA" xOffset="288"/>
  </outline>
</glyph>
<glyph name="dvNA_base" format="1">
  <advance width="500"/>
  <outline>
    <contour>
      <point x="178" y="441" type="curve"/>
      <point x="251" y="441"/>
      <point x="283" y="377"/>
      <point x="283" y="297" type="curve"/>
      <point x="283" y="210"/>
      <point x="254" y="139"/>
      <point x="177" y="139" type="curve"/>
      <point x="99" y="139"/>
      <point x="67" y="210"/>
      <point x="67" y="298" type="curve"/>
      <point x="67" y="379"/>
      <point x="103" y="441"/>
      <point x="177" y="441" type="curve"/>
      <point x="278" y="441"/>
      <point x="353" y="441"/>
      <point x="454" y="441" type="curve"/>
      <point x="454" y="449"/>
      <point x="454" y="455"/>
      <point x="454" y="463" type="curve"/>
      <point x="353" y="463"/>
      <point x="279" y="463"/>
      <point x="178" y="463" type="curve"/>
      <point x="90" y="463"/>
      <point x="43" y="392"/>
      <point x="43" y="297" type="curve"/>
      <point x="43" y="197"/>
      <point x="85" y="118"/>
      <point x="176" y="118" type="curve"/>
      <point x="267" y="118"/>
      <point x="307" y="197"/>
      <point x="307" y="297" type="curve"/>
      <point x="307" y="389"/>
      <point x="264" y="459"/>
      <point x="179" y="459" type="curve"/>
      <point x="179" y="452"/>
      <point x="178" y="448"/>
    </contour>
  </outline>
</glyph>
<glyph name="dvNN_DDHA" format="1">
  <advance width="809"/>
  <outline>
    <contour>
      <point x="660" y="-46" type="move" name="blwm.virama"/>
    </contour>
    <contour>
      <point x="688" y="719" type="move" name="abvm.e"/>
    </contour>
    <contour>
      <point x="660" y="-124" type="move" name="blwm.u"/>
    </contour>
    <component base="dvNN"/>
    <component base="dvDDHA" xOffset="372"/>
  </outline>
</glyph>
<glyph name="dvNN_TTA" format="1">
  <advance width="813"/>
  <outline>
    <contour>
      <point x="662" y="6" type="move" name="blwm.virama"/>
    </contour>
    <contour>
      <point x="642" y="721" type="move" name="abvm.e"/>
    </contour>
    <contour>
      <point x="694" y="-80" type="move" name="blwm.u"/>
    </contour>
    <component base="dvTopbar" xScale="1.24531864546" xOffset="-10"/>
    <component base="dvTTA" xOffset="369"/>
    <component base="dvNN_base" xOffset="-15"/>
  </outline>
</glyph>
<glyph name="dvN_CHA" format="1">
  <advance width="953"/>
  <outline>
    <contour>
      <point x="736" y="-12" type="move" name="blwm.virama"/>
    </contour>
    <contour>
      <point x="799" y="718" type="move" name="abvm.e"/>
    </contour>
    <contour>
      <point x="736" y="-91" type="move" name="blwm.u"/>
    </contour>
    <component base="dvCHA" xOffset="373"/>
    <component base="dvNA_base" xOffset="17" yOffset="13"/>
    <component base="dvTopbar" xOffset="-12"/>
  </outline>
</glyph>
<glyph name="dvPH_PHA" format="1">
  <advance width="1175"/>
  <outline>
    <contour>
      <point x="871" y="0" type="move" name="blwm.virama"/>
    </contour>
    <contour>
      <point x="867" y="720" type="move" name="abvm.e"/>
    </contour>
    <contour>
      <point x="871" y="0" type="move" name="blwm.u"/>
    </contour>
    <component base="dvPHA" xOffset="503"/>
    <component base="dvPH" xOffset="-12"/>
  </outline>
</glyph>
<glyph name="dvP_PHA" format="1">
  <advance width="937"/>
  <outline>
    <contour>
      <point x="632" y="0" type="move" name="blwm.virama"/>
    </contour>
    <contour>
      <point x="632" y="722" type="move" name="abvm.e"/>
    </contour>
    <contour>
      <point x="632" y="0" type="move" name="blwm.u"/>
    </contour>
    <component base="dvPHA" xOffset="265"/>
    <component base="dvP"/>
  </outline>
</glyph>
<glyph name="dvRA_base" format="1">
  <advance width="500"/>
  <outline>
    <contour>
      <point x="88" y="356" type="line"/>
      <point x="173" y="366"/>
      <point x="218" y="450"/>
      <point x="218" y="557" type="curve"/>
      <point x="218" y="619"/>
      <point x="202" y="667"/>
      <point x="167" y="718" type="curve"/>
      <point x="149" y="704" type="line"/>
      <point x="184" y="658"/>
      <point x="194" y="612"/>
      <point x="194" y="554" type="curve"/>
      <point x="194" y="452"/>
      <point x="144" y="377"/>
      <point x="64" y="377" type="curve"/>
    </contour>
    <contour>
      <point x="64" y="377" type="line"/>
      <point x="73" y="213"/>
      <point x="53" y="45"/>
      <point x="199" y="45" type="curve"/>
      <point x="267" y="45"/>
      <point x="303" y="99"/>
      <point x="322" y="168" type="curve"/>
      <point x="303" y="178" type="line"/>
      <point x="283" y="118"/>
      <point x="256" y="69"/>
      <point x="196" y="69" type="curve"/>
      <point x="86" y="69"/>
      <point x="96" y="216"/>
      <point x="88" y="356" type="curve"/>
    </contour>
  </outline>
</glyph>
<glyph name="dvSH_LA" format="1">
  <advance width="1014"/>
  <outline>
    <contour>
      <point x="851" y="11" type="move" name="blwm.virama"/>
    </contour>
    <contour>
      <point x="814" y="722" type="move" name="abvm.e"/>
    </contour>
    <contour>
      <point x="847" y="-71" type="move" name="blwm.u"/>
    </contour>
    <component base="dvSH"/>
    <component base="dvLA" xOffset="369"/>
  </outline>
</glyph>
<glyph name="dvSS_TT_VA" format="1">
  <advance width="728"/>
  <outline>
    <contour>
      <point x="610" y="-195" type="move" name="blwm.virama"/>
    </contour>
    <contour>
      <point x="569" y="720" type="move" name="abvm.e"/>
    </contour>
    <contour>
      <point x="610" y="-199" type="move" name="blwm.u"/>
    </contour>
    <component base="dvSS"/>
    <component base="dvTopbar" xOffset="71"/>
    <component base="dvTTA_short"/>
    <component base="dvStroke_down" yScale="1.45590718348" xOffset="258" yOffset="-188"/>
    <component base="dvVA_open" xOffset="206" yOffset="-276"/>
  </outline>
</glyph>
<glyph name="dvS_K_RA" format="1">
  <advance width="1036"/>
  <outline>
    <contour>
      <point x="695" y="-38" type="move" name="blwm.virama"/>
    </contour>
    <contour>
      <point x="690" y="721" type="move" name="abvm.e"/>
    </contour>
    <contour>
      <point x="696" y="-89" type="move" name="blwm.u"/>
    </contour>
    <contour>
      <point x="432" y="433" type="line"/>
      <point x="398" y="399"/>
      <point x="350" y="387"/>
      <point x="302" y="387" type="curve" smooth="yes"/>
      <point x="257" y="387"/>
      <point x="204" y="405"/>
      <point x="166" y="429" type="curve"/>
      <point x="154" y="412" type="line"/>
      <point x="194" y="386"/>
      <point x="253" y="367"/>
      <point x="301" y="367" type="curve" smooth="yes"/>
      <point x="357" y="367"/>
      <point x="414" y="380"/>
      <point x="448" y="424" type="curve"/>
    </contour>
    <component base="dvK_RA" xOffset="353"/>
    <component base="dvS" xOffset="-12"/>
  </outline>
</glyph>
<glyph name="dvS_T_VA" format="1">
  <advance width="1082"/>
  <outline>
    <contour>
      <point x="467" y="407" type="line"/>
      <point x="428" y="354"/>
      <point x="373" y="335"/>
      <point x="307" y="335" type="curve" smooth="yes"/>
      <point x="240" y="335"/>
      <point x="191" y="364"/>
      <point x="141" y="409" type="curve"/>
      <point x="129" y="392" type="line"/>
      <point x="182" y="344"/>
      <point x="235" y="315"/>
      <point x="306" y="315" type="curve" smooth="yes"/>
      <point x="381" y="315"/>
      <point x="444" y="335"/>
      <point x="483" y="398" type="curve"/>
    </contour>
    <component base="dvT_VA" xOffset="376"/>
    <component base="dvS" xOffset="-12"/>
  </outline>
</glyph>
<glyph name="dvTT_RA" format="1">
  <advance width="443"/>
  <outline>
    <contour>
      <point x="317" y="-121" type="move" name="blwm.virama"/>
    </contour>
    <contour>
      <point x="274" y="719" type="move" name="abvm.e"/>
    </contour>
    <contour>
      <point x="369" y="-188" type="move" name="blwm.u"/>
    </contour>
    <component base="dvTTA"/>
    <component base="dvDoublevirama" xOffset="9" yOffset="137"/>
  </outline>
</glyph>
<glyph name="dvT_LA" format="1">
  <advance width="862"/>
  <outline>
    <contour>
      <point x="699" y="11" type="move" name="blwm.virama"/>
    </contour>
    <contour>
      <point x="661" y="721" type="move" name="abvm.e"/>
    </contour>
    <contour>
      <point x="688" y="-62" type="move" name="blwm.u"/>
    </contour>
    <component base="dvT" xOffset="-10"/>
    <component base="dvLA" xOffset="217"/>
  </outline>
</glyph>
<glyph name="dvV_HA" format="1">
  <advance width="646"/>
  <outline>
    <contour>
      <point x="482" y="-117" type="move" name="blwm.virama"/>
    </contour>
    <contour>
      <point x="530" y="722" type="move" name="abvm.e"/>
    </contour>
    <contour>
      <point x="534" y="-199" type="move" name="blwm.u"/>
    </contour>
    <component base="dvVA_base" xOffset="9" yOffset="-40"/>
    <component base="dvTopbar" xOffset="-12"/>
    <component base="dvHA" xOffset="215"/>
  </outline>
</glyph>
<glyph name="dvYA_base" format="1">
  <advance width="500"/>
  <outline>
    <contour>
      <point x="88" y="386" type="curve"/>
      <point x="173" y="396"/>
      <point x="218" y="448"/>
      <point x="218" y="531" type="curve"/>
      <point x="218" y="594"/>
      <point x="204" y="638"/>
      <point x="167" y="692" type="curve"/>
      <point x="161" y="687"/>
      <point x="155" y="683"/>
      <point x="149" y="678" type="curve"/>
      <point x="185" y="629"/>
      <point x="194" y="586"/>
      <point x="194" y="528" type="curve"/>
      <point x="194" y="455"/>
      <point x="143" y="407"/>
      <point x="64" y="407" type="curve"/>
      <point x="73" y="399"/>
      <point x="79" y="394"/>
    </contour>
    <contour>
      <point x="64" y="407" type="curve"/>
      <point x="64" y="245"/>
      <point x="98" y="103"/>
      <point x="235" y="103" type="curve"/>
      <point x="335" y="103"/>
      <point x="393" y="172"/>
      <point x="423" y="277" type="curve"/>
      <point x="419" y="282"/>
      <point x="415" y="286"/>
      <point x="411" y="291" type="curve"/>
      <point x="380" y="194"/>
      <point x="325" y="124"/>
      <point x="235" y="124" type="curve"/>
      <point x="122" y="124"/>
      <point x="88" y="246"/>
      <point x="88" y="386" type="curve"/>
      <point x="79" y="394"/>
      <point x="73" y="399"/>
    </contour>
  </outline>
</glyph>
<glyph name="dvmI.a01" format="1">
  <advance width="265"/>
  <outline>
    <contour>
      <point x="690" y="697" type="move" name="abvm.i"/>
    </contour>
    <contour>
      <point x="142" y="716" type="curve"/>
      <point x="127" y="746"/>
      <point x="117" y="785"/>
      <point x="117" y="826" type="curve"/>
      <point x="117" y="927"/>
      <point x="206" y="979"/>
      <point x="317" y="979" type="curve"/>
      <point x="493" y="979"/>
      <point x="605" y="868"/>
      <point x="671" y="702" type="curve"/>
      <point x="677" y="706"/>
      <point x="682" y="709"/>
      <point x="688" y="713" type="curve"/>
      <point x="620" y="886"/>
      <point x="502" y="1000"/>
      <point x="319" y="1000" type="curve"/>
      <point x="195" y="1000"/>
      <point x="95" y="943"/>
      <point x="95" y="827" type="curve"/>
      <point x="95" y="782"/>
      <point x="105" y="746"/>
      <point x="121" y="705" type="curve"/>
      <point x="128" y="709"/>
      <point x="135" y="712"/>
    </contour>
    <component base="dvmAA"/>
  </outline>
</glyph>
<glyph name="ruble" format="1">
  <advance width="481"/>
  <outline>
    <contour>
      <point x="85" y="196" type="curve"/>
      <point x="176" y="196"/>
      <point x="267" y="196"/>
      <point x="357" y="196" type="curve"/>
      <point x="357" y="219"/>
      <point x="357" y="196"/>
      <point x="357" y="219" type="curve"/>
      <point x="267" y="219"/>
      <point x="176" y="219"/>
      <point x="85" y="219" type="curve"/>
      <point x="85" y="196"/>
      <point x="85" y="219"/>
    </contour>
    <contour>
      <point x="170" y="722" type="curve"/>
      <point x="133" y="722"/>
      <point x="95" y="722"/>
      <point x="58" y="722" type="curve"/>
      <point x="58" y="700"/>
      <point x="58" y="722"/>
      <point x="58" y="700" type="curve"/>
      <point x="170" y="700"/>
      <point x="58" y="700"/>
      <point x="170" y="700" type="curve"/>
      <point x="170" y="722"/>
      <point x="170" y="700"/>
    </contour>
    <contour>
      <point x="170" y="22" type="curve"/>
      <point x="58" y="22"/>
      <point x="170" y="22"/>
      <point x="58" y="22" type="curve"/>
      <point x="58" y="0"/>
      <point x="58" y="22"/>
      <point x="58" y="0" type="curve"/>
      <point x="95" y="0"/>
      <point x="133" y="0"/>
      <point x="170" y="0" type="curve"/>
      <point x="170" y="22"/>
      <point x="170" y="0"/>
    </contour>
    <contour>
      <point x="170" y="0" type="curve"/>
      <point x="207" y="0"/>
      <point x="170" y="0"/>
      <point x="282" y="0" type="curve"/>
      <point x="282" y="22"/>
      <point x="282" y="0"/>
      <point x="282" y="22" type="curve"/>
      <point x="170" y="22"/>
      <point x="282" y="22"/>
      <point x="170" y="22" type="curve"/>
      <point x="170" y="0"/>
      <point x="170" y="22"/>
    </contour>
    <contour>
      <point x="181" y="0" type="curve"/>
      <point x="181" y="241"/>
      <point x="181" y="481"/>
      <point x="181" y="722" type="curve"/>
      <point x="157" y="722"/>
      <point x="181" y="722"/>
      <point x="157" y="722" type="curve"/>
      <point x="157" y="481"/>
      <point x="157" y="241"/>
      <point x="157" y="0" type="curve"/>
      <point x="181" y="0"/>
      <point x="157" y="0"/>
    </contour>
    <contour>
      <point x="262" y="368" type="curve"/>
      <point x="381" y="370"/>
      <point x="435" y="422"/>
      <point x="435" y="540" type="curve"/>
      <point x="435" y="663"/>
      <point x="383" y="722"/>
      <point x="262" y="722" type="curve"/>
      <point x="225" y="722"/>
      <point x="209" y="722"/>
      <point x="172" y="722" type="curve"/>
      <point x="172" y="713"/>
      <point x="172" y="709"/>
      <point x="172" y="700" type="curve"/>
      <point x="208" y="700"/>
      <point x="223" y="700"/>
      <point x="259" y="700" type="curve"/>
      <point x="366" y="700"/>
      <point x="411" y="648"/>
      <point x="411" y="539" type="curve"/>
      <point x="411" y="436"/>
      <point x="363" y="391"/>
      <point x="259" y="391" type="curve"/>
      <point x="187" y="391"/>
      <point x="157" y="391"/>
      <point x="85" y="391" type="curve"/>
      <point x="85" y="381"/>
      <point x="85" y="378"/>
      <point x="85" y="368" type="curve"/>
      <point x="158" y="368"/>
      <point x="189" y="368"/>
    </contour>
  </outline>
</glyph>
